<svg version="1.1" xmlns="http://www.w3.org/2000/svg" viewBox="0 0 1786.6524367464986 739.7699037364446" width="3573.304873492997" height="1479.5398074728892">
  <!-- svg-source:excalidraw -->
  
  <defs>
    <style class="style-fonts">
      @font-face {
        font-family: "Virgil";
        src: url("https://excalidraw.com/Virgil.woff2");
      }
      @font-face {
        font-family: "Cascadia";
        src: url("https://excalidraw.com/Cascadia.woff2");
      }
    </style>
  </defs>
  <rect x="0" y="0" width="1786.6524367464986" height="739.7699037364446" fill="#f8f9fa"></rect><g stroke-linecap="round" transform="translate(703.4706327710885 10) rotate(0 536.590901987705 359.8849518682223)"><path d="M33.08 -0.46 L1040.47 -1.61 L1050.26 -0.75 L1062.38 6 L1069.17 13.68 L1072.53 18.64 L1074.74 33.62 L1072.84 687.2 L1071.54 696.81 L1067.05 705.47 L1061.47 716.36 L1054.68 719.71 L1039.22 718.9 L33.42 720.12 L24.11 720.47 L11.3 715.08 L5.34 706.78 L0.61 701.16 L-0.63 688.75 L0.15 30.84 L1.13 17.2 L7.01 6.6 L16.39 0.47 L31.12 -0.19" stroke="none" stroke-width="0" fill="#dff1f7"></path><path d="M32 0 M32 0 C421.61 -1.43, 810.49 -1.3, 1041.18 0 M32 0 C259.56 -3.13, 487.72 -3.11, 1041.18 0 M1041.18 0 C1063.82 1.74, 1073.36 11.28, 1073.18 32 M1041.18 0 C1064.06 -0.94, 1074.8 9.12, 1073.18 32 M1073.18 32 C1071.83 252.07, 1072.23 471.32, 1073.18 687.77 M1073.18 32 C1070.41 209.19, 1070.87 385.91, 1073.18 687.77 M1073.18 687.77 C1071.42 710.17, 1064.49 719.22, 1041.18 719.77 M1073.18 687.77 C1071.54 708.32, 1062.16 719.47, 1041.18 719.77 M1041.18 719.77 C642.4 716.05, 243.64 716.21, 32 719.77 M1041.18 719.77 C725.29 716.55, 409.2 716.09, 32 719.77 M32 719.77 C8.86 719.05, -1.56 708, 0 687.77 M32 719.77 C12.92 717.76, -0.13 708.96, 0 687.77 M0 687.77 C0.66 446.68, 0.91 203.96, 0 32 M0 687.77 C-1.92 542.89, -2.44 397.27, 0 32 M0 32 C-0.46 10.9, 9.72 1.14, 32 0 M0 32 C0.28 8.76, 8.47 -0.6, 32 0" stroke="#000000" stroke-width="2" fill="none"></path></g><g stroke-linecap="round" transform="translate(10 67.78134463891763) rotate(0 72.03586933849223 303.11399934212477)"><path d="M7.86 8.16 C7.86 8.16, 7.86 8.16, 7.86 8.16 M7.86 8.16 C7.86 8.16, 7.86 8.16, 7.86 8.16 M3.66 19.09 C6.6 16.88, 11.01 13.16, 18.1 2.48 M3.66 19.09 C8.84 13.86, 13.06 7.68, 18.1 2.48 M2.75 26.24 C10.42 16.89, 16.43 8.81, 24.4 1.33 M2.75 26.24 C10.03 17.76, 15.41 10.63, 24.4 1.33 M1.83 33.39 C12.24 21.25, 21.59 12.65, 30.7 0.18 M1.83 33.39 C8.74 26.46, 14 19.01, 30.7 0.18 M1.57 39.79 C14.95 23.46, 28.92 8.94, 34.37 2.05 M1.57 39.79 C11.02 28.02, 22.39 15.6, 34.37 2.05 M1.96 45.43 C11.69 33.46, 21.78 23.1, 39.36 2.41 M1.96 45.43 C13.96 31.13, 26.16 17.67, 39.36 2.41 M1.7 51.83 C14.02 39.18, 26.04 25.89, 45 2.02 M1.7 51.83 C15.16 37.88, 27.3 21.99, 45 2.02 M1.44 58.23 C19.84 40.89, 33.67 20.39, 49.99 2.38 M1.44 58.23 C16.77 40.94, 32.73 22.1, 49.99 2.38 M1.83 63.87 C21.29 39.45, 43.93 15.6, 55.63 1.98 M1.83 63.87 C20.42 43.27, 39.09 21.3, 55.63 1.98 M1.57 70.27 C25.46 44.68, 49.2 16.88, 60.62 2.34 M1.57 70.27 C23.04 44.99, 46.39 18.92, 60.62 2.34 M1.97 75.91 C24.11 50.27, 49.84 20.12, 66.26 1.95 M1.97 75.91 C27.28 47.66, 52.18 18.79, 66.26 1.95 M1.71 82.31 C17.25 64.31, 28.24 48.74, 71.25 2.31 M1.71 82.31 C28.92 50.71, 56.06 20.78, 71.25 2.31 M2.1 87.95 C20.2 65.05, 44.34 39.37, 76.23 2.67 M2.1 87.95 C26.45 58.85, 51.49 30.2, 76.23 2.67 M1.84 94.35 C22.54 67.46, 48.58 41.7, 81.88 2.27 M1.84 94.35 C33.02 59.08, 62.72 23.59, 81.88 2.27 M1.58 100.75 C20.17 76.76, 41.53 55.27, 86.86 2.63 M1.58 100.75 C30.98 64.74, 61.53 29.66, 86.86 2.63 M1.97 106.39 C26.69 75.71, 55.14 46.8, 92.51 2.24 M1.97 106.39 C26.13 79.3, 49.36 50.72, 92.51 2.24 M1.71 112.79 C35.19 72.49, 68.58 34.26, 97.49 2.6 M1.71 112.79 C40.41 69.56, 77.36 25.57, 97.49 2.6 M2.1 118.43 C40.32 74.88, 79.25 32.33, 103.14 2.21 M2.1 118.43 C32.83 83.28, 62.56 48.15, 103.14 2.21 M1.84 124.83 C25.88 96.56, 50.58 67.68, 108.12 2.57 M1.84 124.83 C24.33 98.39, 46.66 71.63, 108.12 2.57 M1.58 131.23 C35.16 95.64, 67.18 56.19, 113.77 2.17 M1.58 131.23 C25.8 100.4, 52.29 70.57, 113.77 2.17 M1.98 136.87 C35.74 100.25, 65.15 64.17, 120.07 1.02 M1.98 136.87 C29.44 104.41, 55.71 72.74, 120.07 1.02 M1.72 143.27 C33.34 110.01, 62.27 75.08, 124.4 2.14 M1.72 143.27 C42.16 94.87, 82.32 48.29, 124.4 2.14 M2.11 148.91 C38.71 106.69, 77.65 59.44, 128.07 4.01 M2.11 148.91 C30.96 114.53, 60.86 80.98, 128.07 4.01 M1.85 155.31 C37.92 114.24, 69.98 76.43, 132.4 5.12 M1.85 155.31 C53.57 95.69, 106.48 36.93, 132.4 5.12 M1.59 161.71 C29.86 128.99, 57.58 96.15, 135.42 7.75 M1.59 161.71 C34.11 123.43, 67.07 85.93, 135.42 7.75 M1.98 167.35 C35.75 130.51, 68.2 94.28, 138.44 10.37 M1.98 167.35 C47.49 114.46, 92.75 62.9, 138.44 10.37 M1.72 173.75 C43.25 125.1, 86.96 75.37, 140.8 13.75 M1.72 173.75 C45.96 124.28, 89.33 75.45, 140.8 13.75 M2.11 179.39 C33.17 142.98, 65.35 107.37, 142.51 17.88 M2.11 179.39 C50.05 124.22, 99.83 67.64, 142.51 17.88 M1.85 185.79 C45.73 132.81, 93.31 80.9, 143.56 22.77 M1.85 185.79 C40.88 139.47, 79.77 94.71, 143.56 22.77 M1.59 192.19 C34.35 155.87, 65.58 121.52, 145.92 26.15 M1.59 192.19 C57.12 129.18, 113.18 64.3, 145.92 26.15 M1.99 197.83 C39.14 155.06, 75.38 110.14, 145.66 32.55 M1.99 197.83 C31.89 161.79, 62.14 127.19, 145.66 32.55 M1.72 204.23 C49.25 151.06, 98.26 94.57, 146.06 38.19 M1.72 204.23 C46.13 153.69, 90.47 104.96, 146.06 38.19 M2.12 209.87 C44.7 155.99, 89.82 105.95, 145.8 44.59 M2.12 209.87 C32.65 175.96, 60.41 141.38, 145.8 44.59 M1.86 216.27 C34.68 177.33, 65.24 142.38, 145.53 50.99 M1.86 216.27 C38.54 173.2, 73.88 131.23, 145.53 50.99 M1.6 222.66 C50.02 166.17, 99.86 110.39, 145.93 56.63 M1.6 222.66 C52.58 163.21, 101.93 106.34, 145.93 56.63 M1.99 228.31 C42.73 181.1, 84.74 134.53, 145.67 63.03 M1.99 228.31 C49.17 173.83, 97.15 120.01, 145.67 63.03 M1.73 234.71 C33.59 201.78, 64.87 166.16, 146.06 68.67 M1.73 234.71 C54.81 173.81, 106.91 112.13, 146.06 68.67 M2.12 240.35 C36.62 197.67, 70.73 159.43, 145.8 75.07 M2.12 240.35 C51.02 185.37, 97.75 129.88, 145.8 75.07 M1.86 246.75 C39.44 203.08, 74.67 162.13, 145.54 81.47 M1.86 246.75 C56.66 184.63, 110.81 120.95, 145.54 81.47 M2.26 252.39 C54.9 192.62, 105.07 135.04, 145.93 87.11 M2.26 252.39 C54.08 191.52, 106.98 132.29, 145.93 87.11 M2 258.79 C33.02 220.91, 64.44 186.09, 145.67 93.51 M2 258.79 C53.1 202.06, 103.33 143.15, 145.67 93.51 M1.73 265.19 C33.13 228.62, 62.47 194.94, 146.07 99.15 M1.73 265.19 C39.17 220.35, 76.75 176.81, 146.07 99.15 M2.13 270.83 C43.35 223.2, 86.28 173.25, 145.81 105.55 M2.13 270.83 C36.15 234.45, 68.43 195.35, 145.81 105.55 M1.87 277.23 C48.84 220.16, 98.55 165.53, 145.54 111.94 M1.87 277.23 C55.62 217.31, 108.69 155.53, 145.54 111.94 M2.26 282.87 C45.07 237.07, 83.79 190.44, 145.94 117.59 M2.26 282.87 C60.12 218.13, 116.61 154.05, 145.94 117.59 M2 289.27 C31.2 255.09, 59.56 220.02, 145.68 123.99 M2 289.27 C52.5 230.14, 102.51 172.11, 145.68 123.99 M1.74 295.66 C38.85 252.89, 76.09 209.71, 146.07 129.63 M1.74 295.66 C38.65 256.61, 72.17 215.9, 146.07 129.63 M2.13 301.31 C58.08 233.62, 115.05 169.26, 145.81 136.03 M2.13 301.31 C58.14 239.89, 111.47 176.53, 145.81 136.03 M1.87 307.71 C41.72 258.73, 83.8 211.51, 145.55 142.42 M1.87 307.71 C56.87 243.45, 112.62 180.42, 145.55 142.42 M2.27 313.35 C39.5 271.33, 76.36 229.38, 145.94 148.07 M2.27 313.35 C51.12 255.05, 100.98 197.32, 145.94 148.07 M2.01 319.75 C48.63 266.59, 94.83 210.85, 145.68 154.47 M2.01 319.75 C35.72 281.49, 70.87 241.55, 145.68 154.47 M1.74 326.14 C34.21 287.39, 68.41 248.11, 146.08 160.11 M1.74 326.14 C39.42 283.06, 76.56 238.34, 146.08 160.11 M2.14 331.79 C47.04 283.27, 88.66 231.67, 145.82 166.51 M2.14 331.79 C36.41 290.7, 73.17 251.02, 145.82 166.51 M1.88 338.19 C52.13 282.74, 101.51 223.88, 145.55 172.9 M1.88 338.19 C36.4 298.92, 71.12 258.72, 145.55 172.9 M2.27 343.83 C35.67 309.57, 66.37 273.93, 145.95 178.55 M2.27 343.83 C41.03 299.85, 80.24 254.46, 145.95 178.55 M2.01 350.23 C46.75 298.36, 94.05 246.74, 145.69 184.94 M2.01 350.23 C49.87 294.39, 98.32 239.37, 145.69 184.94 M1.75 356.62 C43.88 308.51, 88.31 259.1, 146.08 190.59 M1.75 356.62 C58.33 292.5, 113.3 229.43, 146.08 190.59 M2.14 362.27 C31.83 326.84, 63.42 291.58, 145.82 196.99 M2.14 362.27 C45.17 312.37, 86.93 264.42, 145.82 196.99 M1.88 368.66 C58.36 304.28, 117.39 236.05, 146.22 202.63 M1.88 368.66 C40.74 325.11, 78.6 281.28, 146.22 202.63 M2.28 374.31 C34.21 334.31, 68.24 296.62, 145.95 209.03 M2.28 374.31 C56.78 310.16, 111.72 246.11, 145.95 209.03 M2.02 380.71 C35.29 345.06, 67.54 306.6, 145.69 215.42 M2.02 380.71 C34.43 343.91, 66.23 306.81, 145.69 215.42 M1.75 387.1 C48.02 332.23, 98.2 280.41, 146.09 221.07 M1.75 387.1 C57.91 320.64, 116 254.65, 146.09 221.07 M2.15 392.75 C44.48 345.28, 85.24 294.83, 145.83 227.46 M2.15 392.75 C56.95 331.77, 108.63 269.01, 145.83 227.46 M1.89 399.14 C54.1 339.25, 104.06 278.49, 146.22 233.11 M1.89 399.14 C34.94 361.14, 67.64 322.25, 146.22 233.11 M2.28 404.79 C54.95 341.4, 110.56 279.54, 145.96 239.51 M2.28 404.79 C39.28 364.08, 75.07 323.11, 145.96 239.51 M2.02 411.18 C52.18 354.19, 101.09 299.59, 145.7 245.9 M2.02 411.18 C44 363.27, 87.08 313.42, 145.7 245.9 M1.76 417.58 C40.25 371.82, 81.32 326.61, 146.09 251.55 M1.76 417.58 C31 382.25, 61.38 349.11, 146.09 251.55 M2.15 423.23 C58.56 359.57, 118.48 294.2, 145.83 257.94 M2.15 423.23 C50.34 366.95, 99.37 309.94, 145.83 257.94 M1.89 429.62 C35.18 395.45, 63.61 360.03, 146.22 263.59 M1.89 429.62 C30.48 396.37, 59.11 362.29, 146.22 263.59 M2.29 435.27 C32.88 398.74, 62.87 363.58, 145.96 269.99 M2.29 435.27 C58.62 369.39, 116.55 303.4, 145.96 269.99 M2.02 441.66 C38.65 398.78, 76.54 356.33, 145.7 276.38 M2.02 441.66 C33.22 402.87, 65.6 365.69, 145.7 276.38 M2.42 447.31 C31.92 413.22, 59.38 380.31, 146.1 282.03 M2.42 447.31 C36.28 406.22, 71.91 366.33, 146.1 282.03 M2.16 453.71 C44.21 400.05, 91.04 349.36, 145.83 288.42 M2.16 453.71 C39.16 409.95, 77.26 366.94, 145.83 288.42 M1.9 460.1 C44.01 410.02, 89.3 360.93, 146.23 294.07 M1.9 460.1 C52.14 401.09, 102.26 343.31, 146.23 294.07 M2.29 465.75 C47.37 414.26, 93.29 362.7, 145.97 300.46 M2.29 465.75 C51.88 409.87, 102.11 352.98, 145.97 300.46 M2.03 472.14 C57.33 409.48, 111.45 345.34, 145.71 306.86 M2.03 472.14 C45.02 419.16, 90.78 368.58, 145.71 306.86 M2.42 477.79 C35.86 443.47, 64.99 406.41, 146.1 312.51 M2.42 477.79 C41.82 432.19, 82.58 386.17, 146.1 312.51 M2.16 484.18 C38.39 441.72, 77.23 397.88, 145.84 318.9 M2.16 484.18 C36.57 443.62, 72.86 403.21, 145.84 318.9 M1.9 490.58 C37.2 450.54, 73.66 407.17, 146.23 324.55 M1.9 490.58 C47.38 436.2, 95.05 381.87, 146.23 324.55 M2.3 496.23 C44.76 445.05, 86.06 398.49, 145.97 330.94 M2.3 496.23 C56.81 435.19, 108.82 373.84, 145.97 330.94 M2.03 502.62 C36.73 462.11, 68.84 421.83, 145.71 337.34 M2.03 502.62 C48.35 446.14, 96.9 392.7, 145.71 337.34 M2.43 508.27 C55.86 451.38, 104.59 392.21, 146.11 342.99 M2.43 508.27 C37.15 468.48, 70.12 429.53, 146.11 342.99 M2.17 514.66 C40.07 470.14, 77.61 427.52, 145.84 349.38 M2.17 514.66 C56.06 452.05, 110.14 388.69, 145.84 349.38 M1.91 521.06 C37.17 477.08, 74.62 434.83, 146.24 355.03 M1.91 521.06 C43.09 472.89, 86.19 423.38, 146.24 355.03 M2.3 526.71 C32.31 493.89, 62.98 458.51, 145.98 361.42 M2.3 526.71 C52.91 469.68, 104.9 410.05, 145.98 361.42 M2.04 533.1 C52.52 475.99, 100.17 419.91, 145.72 367.82 M2.04 533.1 C47.7 479.59, 92.35 426.95, 145.72 367.82 M2.43 538.75 C35.58 497.19, 70.93 456.45, 146.11 373.46 M2.43 538.75 C54.95 478.56, 106.55 418.82, 146.11 373.46 M2.17 545.14 C44.91 497.09, 88.94 446.73, 145.85 379.86 M2.17 545.14 C30.67 511.41, 61.35 478.62, 145.85 379.86 M1.91 551.54 C50.4 496.05, 97.12 440.57, 146.24 385.51 M1.91 551.54 C50.73 496.36, 98.02 441.07, 146.24 385.51 M2.31 557.18 C55.53 496.97, 107.31 436.39, 145.98 391.9 M2.31 557.18 C53.32 498.66, 102.63 440.79, 145.98 391.9 M2.04 563.58 C43.01 516.89, 83.61 466.93, 146.38 397.55 M2.04 563.58 C59.57 499.54, 115.51 434.49, 146.38 397.55 M2.44 569.23 C40.38 527.82, 78.39 484.07, 146.12 403.94 M2.44 569.23 C42.06 524.14, 82.06 476.91, 146.12 403.94 M2.18 575.62 C52.54 517.35, 103.11 459.04, 145.85 410.34 M2.18 575.62 C45.66 526.21, 87.8 477.36, 145.85 410.34 M1.26 582.78 C43.54 535.12, 88.8 487.75, 146.25 415.99 M1.26 582.78 C33.86 546.67, 66.21 510.45, 146.25 415.99 M2.97 586.91 C32.21 551.81, 63.05 521.85, 145.99 422.38 M2.97 586.91 C34.82 550.1, 66.37 511.62, 145.99 422.38 M4.67 591.04 C42.1 546.73, 84.03 501.95, 146.38 428.03 M4.67 591.04 C51.57 536.28, 97.87 482.58, 146.38 428.03 M6.38 595.18 C58.35 537.28, 107.18 481.4, 146.12 434.42 M6.38 595.18 C55.47 539.4, 105.11 482.53, 146.12 434.42 M8.74 598.56 C61.02 539.24, 112.63 480.95, 145.86 440.82 M8.74 598.56 C48.63 553.87, 85.97 510.29, 145.86 440.82 M11.76 601.18 C58.03 544.4, 108.72 490.64, 146.25 446.46 M11.76 601.18 C48.59 558.87, 86.19 514.46, 146.25 446.46 M15.44 603.05 C51.23 560.79, 85.39 520.69, 145.99 452.86 M15.44 603.05 C48.43 566.04, 81.8 529.72, 145.99 452.86 M19.11 604.92 C68 546.65, 117.7 489.61, 146.39 458.51 M19.11 604.92 C47.07 573.35, 75.45 541.1, 146.39 458.51 M23.44 606.03 C72.15 550.21, 119.7 495.05, 146.13 464.9 M23.44 606.03 C64.51 560.32, 106.07 512.78, 146.13 464.9 M27.12 607.9 C59.41 571.43, 93.8 532.57, 145.86 471.3 M27.12 607.9 C51.27 577.08, 76.37 548.7, 145.86 471.3 M32.1 608.26 C61.63 571.45, 96.89 534.49, 146.26 476.94 M32.1 608.26 C70.98 562.08, 112.42 516.11, 146.26 476.94 M37.75 607.87 C64.52 575.86, 95.25 543.91, 146 483.34 M37.75 607.87 C69.24 570.94, 100.88 534.78, 146 483.34 M42.73 608.23 C71.56 578.78, 98.16 548.06, 146.39 488.98 M42.73 608.23 C66.73 581.18, 90.5 554.96, 146.39 488.98 M48.38 607.83 C69.38 585.49, 90.63 558.23, 146.13 495.38 M48.38 607.83 C81.88 569.33, 113.15 532.13, 146.13 495.38 M53.36 608.19 C85.66 571.64, 115.06 536.74, 145.87 501.78 M53.36 608.19 C73.21 586.54, 91.21 563.86, 145.87 501.78 M59.01 607.8 C83.62 580.19, 110.57 550.21, 146.26 507.42 M59.01 607.8 C76.79 587.47, 93.7 565.7, 146.26 507.42 M63.99 608.16 C86.04 579.88, 112.34 556.6, 146 513.82 M63.99 608.16 C83.64 583.63, 104.16 560.11, 146 513.82 M69.64 607.77 C85.11 587.01, 102.91 569.82, 146.4 519.46 M69.64 607.77 C83.63 589.15, 101.19 571.36, 146.4 519.46 M74.62 608.13 C100.17 575.55, 129.86 545.02, 146.14 525.86 M74.62 608.13 C91.08 588.06, 109.04 569.58, 146.14 525.86 M80.27 607.73 C106.73 576.56, 132.53 548.63, 145.87 532.26 M80.27 607.73 C96.39 589.87, 111.61 571.37, 145.87 532.26 M85.25 608.09 C104.45 590.3, 117.51 569.8, 146.27 537.9 M85.25 608.09 C107.99 582.7, 130.55 556.16, 146.27 537.9 M90.9 607.7 C103.08 592.47, 118.79 576.92, 146.01 544.3 M90.9 607.7 C104.65 592.14, 116.73 578.1, 146.01 544.3 M95.88 608.06 C112.81 587.83, 129.32 568.29, 146.4 549.94 M95.88 608.06 C111.94 588.56, 128.94 568.23, 146.4 549.94 M101.53 607.66 C109.06 598.76, 121.36 586.86, 146.14 556.34 M101.53 607.66 C117.62 591.31, 131.27 573.46, 146.14 556.34 M106.51 608.02 C113.58 599.51, 125.75 587.75, 146.53 561.98 M106.51 608.02 C121.66 590.49, 135.54 575.25, 146.53 561.98 M112.16 607.63 C123.36 591.66, 138.13 577.08, 146.27 568.38 M112.16 607.63 C123.49 596.41, 133.13 583.83, 146.27 568.38 M117.14 607.99 C123.07 598.98, 129.36 591.42, 145.36 575.54 M117.14 607.99 C123.25 601.92, 128.13 595.7, 145.36 575.54 M122.13 608.35 C128.55 601.53, 135.29 590.63, 144.44 582.69 M122.13 608.35 C129.09 601.22, 135.47 594.65, 144.44 582.69" stroke="#fa5252" stroke-width="0.5" fill="none"></path><path d="M32 0 M32 0 C52.87 -0.24, 75.59 -1.68, 112.07 0 M32 0 C54.91 0.21, 79.37 0.09, 112.07 0 M112.07 0 C134.79 -0.43, 143.53 11.52, 144.07 32 M112.07 0 C134.26 -1.88, 142.54 10.48, 144.07 32 M144.07 32 C144.86 182.07, 143.76 332.31, 144.07 574.23 M144.07 32 C141.96 222.23, 142.25 411.64, 144.07 574.23 M144.07 574.23 C144.56 594.11, 134.23 606.42, 112.07 606.23 M144.07 574.23 C143.41 595.2, 133.57 604.29, 112.07 606.23 M112.07 606.23 C85.03 606.29, 59.13 605.48, 32 606.23 M112.07 606.23 C90.7 606.89, 70.7 606.73, 32 606.23 M32 606.23 C10.37 605.34, -0.03 595.35, 0 574.23 M32 606.23 C11.61 605.37, -2.01 596.49, 0 574.23 M0 574.23 C-2.05 442.06, -0.65 309.38, 0 32 M0 574.23 C1.4 377.9, 1.29 180.57, 0 32 M0 32 C0.03 11.97, 10.45 1.27, 32 0 M0 32 C-0.36 11.23, 12.31 0.66, 32 0" stroke="#000000" stroke-width="1" fill="none"></path></g><g transform="translate(47.47900527843245 343.624692358207) rotate(0 36 12)"><text x="0" y="20" font-family="Cascadia, Segoe UI Emoji" font-size="20px" fill="#000000" text-anchor="start" style="white-space: pre;" direction="ltr">Client</text></g><g stroke-linecap="round" transform="translate(740.2590822889613 80.2622313850519) rotate(0 60.670775321264045 301.6929082769709)"><path d="M7.42 7.77 C7.42 7.77, 7.42 7.77, 7.42 7.77 M7.42 7.77 C7.42 7.77, 7.42 7.77, 7.42 7.77 M3.22 18.7 C7.77 12.39, 12.46 9.56, 17.65 2.1 M3.22 18.7 C6.57 14.65, 8.27 12.29, 17.65 2.1 M2.3 25.85 C6.72 18.17, 17.01 9.81, 23.3 1.7 M2.3 25.85 C9.46 18.48, 16.13 10.7, 23.3 1.7 M2.04 32.25 C13.38 20.53, 21.54 11.7, 29.6 0.55 M2.04 32.25 C9.55 23.27, 18.7 14.03, 29.6 0.55 M2.44 37.89 C11.66 29.29, 19.21 19.13, 33.27 2.42 M2.44 37.89 C13.86 23.67, 25.19 11.12, 33.27 2.42 M2.17 44.29 C17.13 28.88, 30.31 14.7, 38.26 2.78 M2.17 44.29 C14.89 29.11, 28.12 14.24, 38.26 2.78 M1.91 50.69 C19.68 32.54, 33.81 14.88, 43.9 2.39 M1.91 50.69 C13.89 35.83, 27.44 21.97, 43.9 2.39 M2.31 56.33 C19.49 36.6, 39.67 14.59, 48.89 2.75 M2.31 56.33 C18.22 37.11, 35.02 18.4, 48.89 2.75 M2.05 62.73 C14.96 49.39, 27.09 32.94, 54.53 2.35 M2.05 62.73 C16.6 44.71, 31.64 27.69, 54.53 2.35 M2.44 68.37 C18.65 48.29, 36.07 29.95, 59.52 2.71 M2.44 68.37 C21.15 46.2, 41.47 21.96, 59.52 2.71 M2.18 74.77 C24.6 47.98, 43.06 26.3, 65.16 2.32 M2.18 74.77 C24.94 48.73, 47.11 23.13, 65.16 2.32 M1.92 81.17 C15.16 63.72, 29.82 47.9, 70.15 2.68 M1.92 81.17 C24.62 53.57, 48.3 27.44, 70.15 2.68 M2.31 86.81 C20.76 65.84, 40.14 43.29, 75.79 2.28 M2.31 86.81 C25.7 59.24, 50.74 32.31, 75.79 2.28 M2.05 93.21 C28.72 60.69, 53.74 32.2, 80.78 2.64 M2.05 93.21 C23.31 69.34, 43.58 45.92, 80.78 2.64 M2.45 98.85 C35.2 60.89, 70.39 22.82, 86.42 2.25 M2.45 98.85 C24.74 75.27, 44.33 49.42, 86.42 2.25 M2.18 105.25 C37.62 63.71, 73.68 23.61, 92.72 1.1 M2.18 105.25 C31.29 72.22, 59.26 36.74, 92.72 1.1 M1.92 111.65 C41.01 68.86, 78.07 22.99, 97.05 2.21 M1.92 111.65 C39.52 68.97, 76.81 24.95, 97.05 2.21 M2.32 117.29 C32.5 82.2, 62.31 49.33, 102.04 2.58 M2.32 117.29 C29.02 87.64, 53.97 55.8, 102.04 2.58 M2.06 123.69 C37.56 84.05, 72.88 44.93, 106.37 3.69 M2.06 123.69 C25.71 97.31, 47.61 72.74, 106.37 3.69 M2.45 129.33 C28.51 101.7, 53.14 71.1, 110.04 5.56 M2.45 129.33 C40.23 86.09, 78.23 42.27, 110.04 5.56 M2.19 135.73 C36.87 97.74, 71.21 59.51, 113.06 8.18 M2.19 135.73 C25.99 107.61, 48.6 81.15, 113.06 8.18 M1.93 142.13 C43.48 91.49, 83.69 45.24, 116.74 10.05 M1.93 142.13 C42.07 96.28, 83.29 49.44, 116.74 10.05 M2.32 147.77 C34.44 111.19, 63.47 75.35, 119.1 13.43 M2.32 147.77 C38.11 109.38, 71.99 69.45, 119.1 13.43 M2.06 154.17 C46.58 103.98, 90.54 51.62, 120.15 18.32 M2.06 154.17 C41.96 104.73, 84.01 56.44, 120.15 18.32 M2.46 159.81 C44.89 110.8, 90.38 59.25, 121.2 23.21 M2.46 159.81 C46.18 107.61, 92.59 54.65, 121.2 23.21 M2.19 166.21 C37.41 126.84, 71.54 88.97, 120.94 29.61 M2.19 166.21 C44.21 117.56, 88.44 66.76, 120.94 29.61 M1.93 172.61 C32.88 138.92, 63.44 103.04, 121.34 35.25 M1.93 172.61 C27.57 145.01, 51.86 115.28, 121.34 35.25 M2.33 178.25 C31.91 145.59, 60.53 111.59, 121.07 41.65 M2.33 178.25 C37.78 135.26, 74.44 94.57, 121.07 41.65 M2.07 184.65 C41.89 139.38, 85.04 89.15, 120.81 48.05 M2.07 184.65 C40.56 138.21, 80.12 93.26, 120.81 48.05 M2.46 190.29 C39.93 146.29, 83.03 101.78, 121.21 53.69 M2.46 190.29 C26.11 161.11, 52.64 130.52, 121.21 53.69 M2.2 196.69 C40.44 152.62, 82.2 106.73, 120.95 60.09 M2.2 196.69 C40.63 154.59, 77.25 110.5, 120.95 60.09 M1.94 203.09 C46.49 152.83, 94.17 97.97, 121.34 65.73 M1.94 203.09 C29.58 170.02, 57.26 138.22, 121.34 65.73 M2.33 208.73 C39.39 166, 77.16 123.22, 121.08 72.13 M2.33 208.73 C43.16 161.32, 84.55 114.21, 121.08 72.13 M2.07 215.13 C43.62 167.01, 81.04 121.31, 120.82 78.52 M2.07 215.13 C29.25 181.21, 57.8 150.13, 120.82 78.52 M2.47 220.77 C34.26 185.99, 67.35 149.64, 121.21 84.17 M2.47 220.77 C29.06 189.11, 56.38 156.47, 121.21 84.17 M2.2 227.17 C35.68 187.11, 74.55 143.32, 120.95 90.57 M2.2 227.17 C26.25 200.6, 49.51 171.55, 120.95 90.57 M2.6 232.81 C41.71 184.57, 85.13 140.48, 121.35 96.21 M2.6 232.81 C45.78 182.45, 89.74 132.06, 121.35 96.21 M2.34 239.21 C37 199.06, 68.75 159.28, 121.08 102.61 M2.34 239.21 C28.56 206.15, 58.59 173.73, 121.08 102.61 M2.08 245.61 C45.21 196.2, 92.32 144.68, 120.82 109 M2.08 245.61 C24.82 216.73, 49.75 190.15, 120.82 109 M2.47 251.25 C32.44 217.35, 66.72 179.73, 121.22 114.65 M2.47 251.25 C44.99 203.99, 85.19 156.46, 121.22 114.65 M2.21 257.65 C50.07 203.45, 98.34 149.24, 120.96 121.05 M2.21 257.65 C47.6 204.93, 92.86 154.4, 120.96 121.05 M2.6 263.29 C39.47 218.77, 74.06 177.16, 121.35 126.69 M2.6 263.29 C35.61 226.22, 65.99 191.33, 121.35 126.69 M2.34 269.69 C40.14 226.34, 77.52 183.27, 121.09 133.09 M2.34 269.69 C44.36 218.46, 86.65 169.73, 121.09 133.09 M2.08 276.09 C32.4 237.81, 63.68 204.03, 120.83 139.48 M2.08 276.09 C31.06 246.08, 58.44 213.62, 120.83 139.48 M2.48 281.73 C31.77 246.47, 58.52 215.43, 121.22 145.13 M2.48 281.73 C28.14 251.83, 53.63 221.03, 121.22 145.13 M2.21 288.13 C37.1 248.92, 69.78 209.08, 120.96 151.52 M2.21 288.13 C27.4 258.5, 52.63 228.18, 120.96 151.52 M2.61 293.77 C44.31 248.6, 83.08 202.83, 121.35 157.17 M2.61 293.77 C33.03 260.09, 63.96 225.3, 121.35 157.17 M2.35 300.17 C37.49 261.78, 71.06 222.56, 121.09 163.57 M2.35 300.17 C35.71 261.72, 68.43 222.36, 121.09 163.57 M2.09 306.57 C47.82 254.98, 90.46 203.75, 121.49 169.21 M2.09 306.57 C45.91 256.47, 92.18 204.93, 121.49 169.21 M2.48 312.21 C34.75 274.81, 65.41 239.13, 121.23 175.61 M2.48 312.21 C30.44 279.55, 58.3 246.91, 121.23 175.61 M2.22 318.61 C46.86 268.17, 95.31 215.89, 120.97 182 M2.22 318.61 C37.11 277.74, 72.43 237.16, 120.97 182 M2.61 324.25 C27.09 294.47, 49.98 268.43, 121.36 187.65 M2.61 324.25 C47.81 271.07, 92.69 218.44, 121.36 187.65 M2.35 330.65 C31.07 303.42, 57.11 272.58, 121.1 194.05 M2.35 330.65 C47.7 279.57, 91.14 229.37, 121.1 194.05 M2.09 337.05 C24.98 306.98, 52.29 279.35, 121.49 199.69 M2.09 337.05 C40.27 288.69, 82.26 243.11, 121.49 199.69 M2.48 342.69 C45.29 290.4, 90.95 238, 121.23 206.09 M2.48 342.69 C43.91 293.38, 86.53 246.61, 121.23 206.09 M2.22 349.09 C38.66 308.9, 73.25 266.73, 120.97 212.48 M2.22 349.09 C31.14 315.79, 59.84 281.63, 120.97 212.48 M2.62 354.73 C49.44 302.99, 94.53 250.23, 121.36 218.13 M2.62 354.73 C27.43 325.62, 51.15 298.25, 121.36 218.13 M2.36 361.13 C34.26 326.32, 60.96 292.27, 121.1 224.52 M2.36 361.13 C46.02 313.21, 88.64 263.86, 121.1 224.52 M2.1 367.52 C29.19 340.31, 53.04 311.03, 121.5 230.17 M2.1 367.52 C41.73 321.26, 79.87 276.13, 121.5 230.17 M2.49 373.17 C45.06 322.48, 87.59 272.45, 121.24 236.57 M2.49 373.17 C30.82 338.94, 59 306.29, 121.24 236.57 M2.23 379.57 C27.24 349.08, 57.74 321.11, 120.97 242.96 M2.23 379.57 C40.39 336.29, 76.69 292.28, 120.97 242.96 M2.62 385.21 C38.28 344.8, 70.31 308.7, 121.37 248.61 M2.62 385.21 C49.82 330.94, 95.6 277.1, 121.37 248.61 M2.36 391.61 C32.91 354.6, 66.13 318.04, 121.11 255 M2.36 391.61 C49.76 338.56, 95.77 285.98, 121.11 255 M2.1 398 C49.83 345.62, 92.47 296.77, 121.5 260.65 M2.1 398 C27.09 370.54, 53.25 340.74, 121.5 260.65 M2.49 403.65 C30.43 373.91, 56.2 345.1, 121.24 267.04 M2.49 403.65 C47.74 351.43, 93.31 298.55, 121.24 267.04 M2.23 410.05 C45.09 362.11, 84.86 315.29, 120.98 273.44 M2.23 410.05 C27.77 381.98, 52.82 353.86, 120.98 273.44 M2.63 415.69 C43.74 366.92, 87.35 318.91, 121.37 279.09 M2.63 415.69 C45.13 369.73, 85.23 322.02, 121.37 279.09 M2.37 422.09 C26.82 390.98, 54.79 361.09, 121.11 285.48 M2.37 422.09 C27.91 393.66, 52.56 364.79, 121.11 285.48 M2.76 427.73 C28.81 398.72, 54.08 367.87, 121.51 291.13 M2.76 427.73 C45.26 380.55, 84.85 333.62, 121.51 291.13 M2.5 434.13 C26.2 405.25, 51.01 380.05, 121.25 297.52 M2.5 434.13 C49.06 381.33, 94.21 329.73, 121.25 297.52 M2.24 440.52 C45.05 392.19, 91.17 338.87, 120.98 303.92 M2.24 440.52 C31.26 405.2, 62.37 370.94, 120.98 303.92 M2.63 446.17 C44.76 394.53, 91.06 345.31, 121.38 309.57 M2.63 446.17 C48.47 396.47, 92.82 343.62, 121.38 309.57 M2.37 452.57 C26.36 422.26, 51.48 392.1, 121.12 315.96 M2.37 452.57 C47.17 399.64, 93.28 346.43, 121.12 315.96 M2.77 458.21 C49.79 404.67, 96.93 351.9, 121.51 321.61 M2.77 458.21 C47.28 405.61, 91.55 355, 121.51 321.61 M2.5 464.61 C49.95 410.1, 95.76 359.34, 121.25 328 M2.5 464.61 C32.06 431.12, 59.95 400.01, 121.25 328 M2.24 471 C29.65 440.33, 57.57 405.79, 121.65 333.65 M2.24 471 C36.95 431.5, 69.29 394.29, 121.65 333.65 M2.64 476.65 C44.58 427.32, 87.88 380.05, 121.38 340.04 M2.64 476.65 C41.7 429.8, 83.02 382.79, 121.38 340.04 M2.38 483.04 C49.13 429.04, 99.19 373.5, 121.12 346.44 M2.38 483.04 C35.37 444.59, 69.15 406.3, 121.12 346.44 M2.77 488.69 C30.72 457.1, 56.75 424.61, 121.52 352.09 M2.77 488.69 C34.2 455.88, 63.64 421.33, 121.52 352.09 M2.51 495.09 C42.01 448.23, 85.34 398, 121.26 358.48 M2.51 495.09 C41.3 449.37, 81.35 404.52, 121.26 358.48 M2.25 501.48 C44.03 452.56, 84.56 407.04, 121.65 364.13 M2.25 501.48 C37.82 459.04, 75.13 417.07, 121.65 364.13 M2.64 507.13 C31.63 470.02, 65.78 435.31, 121.39 370.52 M2.64 507.13 C32.38 472.07, 63.33 435.48, 121.39 370.52 M2.38 513.52 C34.74 476.51, 66.22 438.7, 121.13 376.92 M2.38 513.52 C38.63 470.61, 75.4 430.83, 121.13 376.92 M2.78 519.17 C31.63 485.56, 58.87 455.3, 121.52 382.57 M2.78 519.17 C27.21 490.54, 54.09 459.07, 121.52 382.57 M2.51 525.57 C30.3 498.41, 52.55 467.39, 121.26 388.96 M2.51 525.57 C27.98 497.27, 51.49 466.95, 121.26 388.96 M2.25 531.96 C45.66 487.42, 83.46 439.91, 121.66 394.61 M2.25 531.96 C35.82 490.55, 71.29 451.36, 121.66 394.61 M2.65 537.61 C30.48 508.99, 56.12 479.8, 121.39 401 M2.65 537.61 C31.22 504.05, 62.23 468.58, 121.39 401 M2.39 544 C44.85 495.81, 87.41 446.1, 121.13 407.4 M2.39 544 C34.24 507.81, 67 471.1, 121.13 407.4 M2.78 549.65 C46.07 501.82, 86.83 450.56, 121.53 413.04 M2.78 549.65 C29.68 517.82, 59.99 483.98, 121.53 413.04 M2.52 556.04 C52.42 502.69, 97.73 449.32, 121.27 419.44 M2.52 556.04 C30.91 522.06, 59.35 489.65, 121.27 419.44 M2.26 562.44 C42.94 514.42, 84.48 465.9, 121.66 425.09 M2.26 562.44 C29.4 533.7, 56.57 503.07, 121.66 425.09 M2.65 568.09 C40.24 524.47, 75.66 484.79, 121.4 431.48 M2.65 568.09 C30.82 535.67, 59.26 502.38, 121.4 431.48 M2.39 574.48 C42.14 528.45, 80.7 483.91, 121.14 437.88 M2.39 574.48 C31.03 541.88, 58.69 508.33, 121.14 437.88 M1.47 581.64 C38.97 538.95, 71.52 500.74, 121.53 443.52 M1.47 581.64 C49.38 527.27, 97.46 473.31, 121.53 443.52 M3.18 585.77 C38.58 548.2, 72.51 508.57, 121.27 449.92 M3.18 585.77 C47.51 536.76, 88.85 486.6, 121.27 449.92 M4.89 589.9 C38.72 553.34, 67.48 519.49, 121.66 455.56 M4.89 589.9 C47.88 540.78, 91.27 490.17, 121.66 455.56 M6.59 594.04 C32.05 565.67, 54.84 534.08, 121.4 461.96 M6.59 594.04 C38.79 558.14, 69.18 520.5, 121.4 461.96 M8.96 597.42 C39.22 560.05, 71.89 525.19, 121.14 468.36 M8.96 597.42 C43.05 556.86, 79.63 517.45, 121.14 468.36 M12.63 599.29 C53.99 551.59, 94.85 500.79, 121.54 474 M12.63 599.29 C42.6 562.61, 73.94 527.98, 121.54 474 M16.31 601.15 C51.31 562.59, 80.59 526.17, 121.27 480.4 M16.31 601.15 C49.35 560.62, 83.56 521.58, 121.27 480.4 M19.32 603.78 C50.31 573.53, 75.67 541.12, 121.67 486.04 M19.32 603.78 C50.28 568.35, 81.1 533.3, 121.67 486.04 M24.31 604.14 C55.57 570.22, 83.66 536.82, 121.41 492.44 M24.31 604.14 C64.47 560.49, 102.69 516.44, 121.41 492.44 M28.64 605.25 C66.47 564.37, 100.8 523.3, 121.15 498.84 M28.64 605.25 C53.36 578.99, 77.95 550.7, 121.15 498.84 M33.63 605.61 C62.92 573.44, 89.16 539.11, 121.54 504.48 M33.63 605.61 C53.62 581.63, 74.9 557.82, 121.54 504.48 M38.62 605.97 C59.75 578.35, 86.95 550.03, 121.28 510.88 M38.62 605.97 C63.81 576.47, 87.55 548.04, 121.28 510.88 M44.26 605.58 C73.23 574.15, 97.05 544.5, 121.67 516.52 M44.26 605.58 C64.7 581.89, 86.94 555.94, 121.67 516.52 M49.25 605.94 C74.86 575.39, 101.18 547.26, 121.41 522.92 M49.25 605.94 C77.61 572.49, 105.53 541.44, 121.41 522.92 M54.89 605.55 C77.35 582.2, 96.59 558.63, 121.81 528.56 M54.89 605.55 C71.58 584.78, 89.47 564.21, 121.81 528.56 M59.88 605.91 C74.21 591.49, 87.53 575.11, 121.55 534.96 M59.88 605.91 C78.28 585.32, 98.6 563.52, 121.55 534.96 M65.52 605.51 C79.63 589.76, 94.57 571.9, 121.28 541.36 M65.52 605.51 C80.27 587.62, 94.11 570.86, 121.28 541.36 M70.51 605.87 C85.35 586.87, 99.57 568.79, 121.68 547 M70.51 605.87 C82.23 591.98, 95.75 577.64, 121.68 547 M76.15 605.48 C84.06 593.68, 94.36 583.28, 121.42 553.4 M76.15 605.48 C87.77 593.2, 98.57 579.37, 121.42 553.4 M81.14 605.84 C93.05 589.17, 107.92 574.65, 121.81 559.04 M81.14 605.84 C89.78 595.63, 99.25 586.28, 121.81 559.04 M86.78 605.44 C94.46 593.07, 105.42 583.03, 121.55 565.44 M86.78 605.44 C97.3 591.94, 108.28 580.67, 121.55 565.44 M91.77 605.8 C99.18 600.65, 102.28 592.64, 121.29 571.84 M91.77 605.8 C98.05 597.89, 105.13 589.48, 121.29 571.84 M98.72 603.9 C106.37 594.91, 115.41 584.56, 123.65 575.22 M98.72 603.9 C104.56 596.56, 111.72 588.98, 123.65 575.22 M106.33 601.24 C110.88 596.68, 115.03 588.73, 122.73 582.37 M106.33 601.24 C111.36 593.81, 118.33 589.13, 122.73 582.37" stroke="#228be6" stroke-width="0.5" fill="none"></path><path d="M30.34 0 M30.34 0 C55.05 0.54, 78.26 0.03, 91.01 0 M30.34 0 C43.1 0.24, 55.91 -0.15, 91.01 0 M91.01 0 C112.66 0.58, 119.6 11.9, 121.34 30.34 M91.01 0 C113.03 -1.85, 120.83 7.89, 121.34 30.34 M121.34 30.34 C122.91 188.26, 122.71 347.71, 121.34 573.05 M121.34 30.34 C120.23 158.03, 120.26 285.22, 121.34 573.05 M121.34 573.05 C121.8 593.01, 112.93 604.36, 91.01 603.39 M121.34 573.05 C122.18 594.64, 110.88 601.26, 91.01 603.39 M91.01 603.39 C67.75 600.97, 47.88 602.65, 30.34 603.39 M91.01 603.39 C68.04 602.84, 43.66 604.78, 30.34 603.39 M30.34 603.39 C9.45 603.74, -1.92 594.87, 0 573.05 M30.34 603.39 C9.76 601.4, 2.27 591.66, 0 573.05 M0 573.05 C-1.34 414.21, -1.46 256.02, 0 30.34 M0 573.05 C-2.35 368.81, -2.1 164.47, 0 30.34 M0 30.34 C-1.79 9.68, 11.04 -1.07, 30.34 0 M0 30.34 C-0.74 9.13, 10.65 -0.82, 30.34 0" stroke="#343a40" stroke-width="1" fill="none"></path></g><g transform="translate(764.9298576102253 369.9551396620228) rotate(0 36 12)"><text x="36" y="20" font-family="Cascadia, Segoe UI Emoji" font-size="20px" fill="#343a40" text-anchor="middle" style="white-space: pre;" direction="ltr">Rackup</text></g><g stroke-linecap="round"><g transform="translate(204.36600506982307 148.30014632029787) rotate(0 237.5160689580868 0.32629815993287536)"><path d="M0.98 0.06 C80.03 -0.02, 395.9 -0.03, 475 0.24 M0.03 -0.95 C78.86 -0.93, 394.78 1.46, 473.95 1.6" stroke="#000000" stroke-width="1" fill="none"></path></g><g transform="translate(204.36600506982307 148.30014632029787) rotate(0 237.5160689580868 0.32629815993287536)"><path d="M445.81 11.4 C455.12 8.53, 467.57 3.37, 474.88 2.96 M446.48 11.13 C454.6 8.16, 464.59 5.16, 474.39 1.59" stroke="#000000" stroke-width="1" fill="none"></path></g><g transform="translate(204.36600506982307 148.30014632029787) rotate(0 237.5160689580868 0.32629815993287536)"><path d="M445.91 -9.12 C455.31 -4.69, 467.72 -2.55, 474.88 2.96 M446.58 -9.39 C454.7 -5.43, 464.64 -1.5, 474.39 1.59" stroke="#000000" stroke-width="1" fill="none"></path></g></g><mask></mask><g stroke-linecap="round"><g transform="translate(680.1964618391044 617.2269812915654) rotate(0 -229.80606409137306 0.5637547286504514)"><path d="M0.89 -1.01 C-75.85 -0.83, -383.22 1.74, -460.02 2.14 M-0.11 1.07 C-76.96 1.4, -383.83 -0.01, -460.5 0.24" stroke="#000000" stroke-width="1" fill="none"></path></g><g transform="translate(680.1964618391044 617.2269812915654) rotate(0 -229.80606409137306 0.5637547286504514)"><path d="M-433.99 -8.51 C-440.87 -4.66, -451.45 -3.81, -458.97 1.59 M-433.09 -10.86 C-442.16 -5.72, -452.91 -2.83, -460.99 0.55" stroke="#000000" stroke-width="1" fill="none"></path></g><g transform="translate(680.1964618391044 617.2269812915654) rotate(0 -229.80606409137306 0.5637547286504514)"><path d="M-434.01 12.02 C-441.07 9.04, -451.64 3.07, -458.97 1.59 M-433.11 9.66 C-442.27 7.34, -453.01 2.78, -460.99 0.55" stroke="#000000" stroke-width="1" fill="none"></path></g></g><mask></mask><g transform="translate(320.8882034044378 54.536243963470554) rotate(0 124 36)"><text x="0" y="20" font-family="Cascadia, Segoe UI Emoji" font-size="20px" fill="#000000" text-anchor="start" style="white-space: pre;" direction="ltr">HTTP Request</text><text x="0" y="44" font-family="Cascadia, Segoe UI Emoji" font-size="20px" fill="#000000" text-anchor="start" style="white-space: pre;" direction="ltr">POST /sor-names</text><text x="0" y="68" font-family="Cascadia, Segoe UI Emoji" font-size="20px" fill="#000000" text-anchor="start" style="white-space: pre;" direction="ltr">params: list of names</text></g><g transform="translate(347.2747024658632 529.042548572764) rotate(0 118 36)"><text x="0" y="20" font-family="Cascadia, Segoe UI Emoji" font-size="20px" fill="#000000" text-anchor="start" style="white-space: pre;" direction="ltr">HTTP Response</text><text x="0" y="44" font-family="Cascadia, Segoe UI Emoji" font-size="20px" fill="#000000" text-anchor="start" style="white-space: pre;" direction="ltr">list of names sorted</text><text x="0" y="68" font-family="Cascadia, Segoe UI Emoji" font-size="20px" fill="#000000" text-anchor="start" style="white-space: pre;" direction="ltr">in alphabetic order </text></g><g stroke-linecap="round" transform="translate(1111.2910579342358 90.53333969739191) rotate(0 84.24416828440519 295.68870766409555)"><path d="M7.86 8.16 C7.86 8.16, 7.86 8.16, 7.86 8.16 M7.86 8.16 C7.86 8.16, 7.86 8.16, 7.86 8.16 M3.66 19.09 C4.97 13.69, 9.82 12.08, 18.1 2.48 M3.66 19.09 C8.23 15.13, 13.29 10.36, 18.1 2.48 M2.75 26.24 C11.51 14.69, 18.61 5.01, 24.4 1.33 M2.75 26.24 C11.51 16.93, 19.18 6.62, 24.4 1.33 M1.83 33.39 C13.47 19.39, 23.67 9.39, 30.7 0.18 M1.83 33.39 C8.52 25.68, 16.8 18.4, 30.7 0.18 M1.57 39.79 C9.32 33.32, 16.09 25.14, 34.37 2.05 M1.57 39.79 C8.14 32.88, 14.96 25.28, 34.37 2.05 M1.96 45.43 C14.37 32.6, 22.83 19.38, 39.36 2.41 M1.96 45.43 C12.71 32.16, 25.12 19.47, 39.36 2.41 M1.7 51.83 C16.83 34.38, 35.53 13.48, 45 2.02 M1.7 51.83 C17.51 33.34, 32.36 16.92, 45 2.02 M1.44 58.23 C20.97 36.66, 37.61 15.82, 49.99 2.38 M1.44 58.23 C20.03 38.12, 38.21 15.54, 49.99 2.38 M1.83 63.87 C21.84 37.4, 41.96 16.38, 55.63 1.98 M1.83 63.87 C21.61 40.93, 41.18 17.78, 55.63 1.98 M1.57 70.27 C19.17 50.53, 41.8 29.22, 60.62 2.34 M1.57 70.27 C18.89 51.06, 35.58 31.94, 60.62 2.34 M1.97 75.91 C24.09 50.51, 44.58 25.8, 66.26 1.95 M1.97 75.91 C16.22 60.39, 28.63 45.55, 66.26 1.95 M1.71 82.31 C26.96 51.99, 53.61 20.7, 71.25 2.31 M1.71 82.31 C26.98 56.52, 50.08 27.75, 71.25 2.31 M2.1 87.95 C28.19 58.42, 54.43 28.25, 76.89 1.91 M2.1 87.95 C17.98 71.48, 32.54 52.92, 76.89 1.91 M1.84 94.35 C30.27 65.04, 54.08 30.73, 81.88 2.27 M1.84 94.35 C34.81 57.49, 65.08 21.48, 81.88 2.27 M1.58 100.75 C18.63 78.71, 35.06 58.35, 86.86 2.63 M1.58 100.75 C32.54 66.14, 63.02 30.11, 86.86 2.63 M1.97 106.39 C27.65 76.21, 55.91 44.16, 92.51 2.24 M1.97 106.39 C38.15 63.56, 74.04 22.87, 92.51 2.24 M1.71 112.79 C32.74 77.34, 64.05 42.13, 97.49 2.6 M1.71 112.79 C25.37 86.21, 47.15 57.83, 97.49 2.6 M2.1 118.43 C33.52 80.73, 67.86 46.55, 103.14 2.21 M2.1 118.43 C25.72 91.12, 48.11 65.33, 103.14 2.21 M1.84 124.83 C38.72 82.36, 71.63 43.67, 108.12 2.57 M1.84 124.83 C30.39 92.24, 58.93 58.55, 108.12 2.57 M1.58 131.23 C44.8 80.53, 86.22 33.94, 113.77 2.17 M1.58 131.23 C33.62 96.35, 63.15 60.76, 113.77 2.17 M1.98 136.87 C40.74 95.28, 77.62 49.46, 118.76 2.53 M1.98 136.87 C32.02 99.26, 64.67 63.09, 118.76 2.53 M1.72 143.27 C28.87 116.65, 53.76 86.54, 124.4 2.14 M1.72 143.27 C32.09 109.9, 60.44 74.51, 124.4 2.14 M2.11 148.91 C48.69 90.05, 101.15 35.76, 129.39 2.5 M2.11 148.91 C36.14 111.25, 71.12 71.28, 129.39 2.5 M1.85 155.31 C32.96 120.92, 65.49 82.16, 134.37 2.86 M1.85 155.31 C47.76 102.74, 93.03 50.38, 134.37 2.86 M1.59 161.71 C41.02 119.6, 78.49 72.55, 140.02 2.46 M1.59 161.71 C47.83 109.94, 91.3 59.1, 140.02 2.46 M1.98 167.35 C43.98 121.91, 82.34 79.55, 145.66 2.07 M1.98 167.35 C46.43 113.17, 92.5 60.89, 145.66 2.07 M1.72 173.75 C58.21 109.89, 115.94 44.26, 150.65 2.43 M1.72 173.75 C47.25 122.55, 91.91 70.97, 150.65 2.43 M2.11 179.39 C37.62 141.67, 69.79 100.51, 154.32 4.3 M2.11 179.39 C36.16 138.45, 71.35 98.09, 154.32 4.3 M1.85 185.79 C48.2 132.07, 93.13 81.78, 158 6.17 M1.85 185.79 C45.75 135.39, 89.45 84.12, 158 6.17 M1.59 192.19 C58.41 126.5, 115.76 60.48, 161.01 8.79 M1.59 192.19 C36.4 150.22, 73.5 108.13, 161.01 8.79 M1.99 197.83 C46.9 146.52, 93.15 94.19, 163.38 12.17 M1.99 197.83 C64.51 126.92, 126.29 56, 163.38 12.17 M1.72 204.23 C44.96 154.96, 86.72 107.54, 166.4 14.79 M1.72 204.23 C36.05 164, 70.11 126.2, 166.4 14.79 M2.12 209.87 C34.23 170.06, 69.68 131.83, 168.1 18.93 M2.12 209.87 C50.62 153.67, 99.39 97.81, 168.1 18.93 M1.86 216.27 C44.7 167.68, 85.41 120.66, 168.5 24.57 M1.86 216.27 C62.55 147.63, 121.84 79.83, 168.5 24.57 M1.6 222.66 C33.59 181.71, 68.09 143.64, 168.24 30.97 M1.6 222.66 C61.34 152.53, 123.08 82.45, 168.24 30.97 M1.99 228.31 C63.68 157.22, 128.02 81.89, 168.63 36.61 M1.99 228.31 C66.87 153.77, 132.18 78.9, 168.63 36.61 M1.73 234.71 C40.09 191.23, 74.78 150.39, 168.37 43.01 M1.73 234.71 C58.28 168.51, 115.09 102.74, 168.37 43.01 M2.12 240.35 C44.02 190.78, 90.09 139.6, 168.11 49.41 M2.12 240.35 C59.88 172.35, 117.64 106.3, 168.11 49.41 M1.86 246.75 C40.53 201.15, 80.81 155.17, 168.5 55.05 M1.86 246.75 C63.33 174.09, 127.13 101.47, 168.5 55.05 M2.26 252.39 C36.07 213.17, 69.7 170.83, 168.24 61.45 M2.26 252.39 C64.09 181.28, 125.14 111.23, 168.24 61.45 M2 258.79 C48.45 207.21, 94.96 152.69, 168.63 67.09 M2 258.79 C44.76 209.66, 87.43 160.82, 168.63 67.09 M1.73 265.19 C49.38 208.54, 97.22 151.59, 168.37 73.49 M1.73 265.19 C56.19 205.22, 108.79 145.43, 168.37 73.49 M2.13 270.83 C65.76 195.95, 131.22 120.57, 168.11 79.89 M2.13 270.83 C64.33 199.15, 125.66 129.58, 168.11 79.89 M1.87 277.23 C49.48 220.22, 100 163.25, 168.51 85.53 M1.87 277.23 C63.63 210.09, 123.06 139.59, 168.51 85.53 M2.26 282.87 C48.18 232.02, 89.17 182.04, 168.25 91.93 M2.26 282.87 C55.86 219.95, 109.59 157.07, 168.25 91.93 M2 289.27 C61 219.13, 122.24 148.61, 168.64 97.57 M2 289.27 C69.63 213.6, 135.63 137.14, 168.64 97.57 M1.74 295.66 C38.4 250.85, 78.12 208.82, 168.38 103.97 M1.74 295.66 C59.64 228.18, 119.5 159.68, 168.38 103.97 M2.13 301.31 C59.64 233.84, 119.39 167.59, 168.12 110.37 M2.13 301.31 C41.81 256.02, 81.66 210.16, 168.12 110.37 M1.87 307.71 C43.88 263.09, 83.6 216.34, 168.51 116.01 M1.87 307.71 C49.57 252.52, 99.22 196.36, 168.51 116.01 M2.27 313.35 C49.11 262.11, 93.23 211.3, 168.25 122.41 M2.27 313.35 C68.69 239.1, 134.42 163.57, 168.25 122.41 M2.01 319.75 C49.31 265.74, 95.64 210.64, 168.64 128.05 M2.01 319.75 C67.82 244.22, 133.17 167.43, 168.64 128.05 M1.74 326.14 C42.96 281.33, 81.94 233.67, 168.38 134.45 M1.74 326.14 C55.61 266.83, 107.42 204.91, 168.38 134.45 M2.14 331.79 C66.12 258.48, 128.16 183.03, 168.12 140.85 M2.14 331.79 C58.38 267.56, 113.82 202.84, 168.12 140.85 M1.88 338.19 C56.85 273, 113.12 207.02, 168.52 146.49 M1.88 338.19 C61.32 269.36, 121.71 200.78, 168.52 146.49 M2.27 343.83 C37.35 303.43, 74.81 264.39, 168.25 152.89 M2.27 343.83 C35.77 303.8, 70.14 264.9, 168.25 152.89 M2.01 350.23 C62.08 283.21, 121.35 213.82, 168.65 158.53 M2.01 350.23 C67.32 276.53, 132.29 202, 168.65 158.53 M1.75 356.62 C42.36 308.24, 85.74 257.72, 168.39 164.93 M1.75 356.62 C52.69 299.54, 101.96 241.65, 168.39 164.93 M2.14 362.27 C45.08 316.9, 83.27 271.63, 168.13 171.33 M2.14 362.27 C66.23 287.39, 131.35 214.33, 168.13 171.33 M1.88 368.66 C42.67 321.41, 80.5 277.78, 168.52 176.97 M1.88 368.66 C57.59 302.62, 114.88 236.76, 168.52 176.97 M2.28 374.31 C46.6 321.48, 87.64 270.98, 168.26 183.37 M2.28 374.31 C45.08 323.94, 89.84 274.38, 168.26 183.37 M2.02 380.71 C59.44 316.41, 115.79 249.85, 168.65 189.01 M2.02 380.71 C46.17 331.34, 90.71 281.81, 168.65 189.01 M1.75 387.1 C39.94 341.27, 76.32 300.21, 168.39 195.41 M1.75 387.1 C40.21 343.11, 78.99 299.81, 168.39 195.41 M2.15 392.75 C58.45 327.38, 114.05 260.95, 168.79 201.05 M2.15 392.75 C38.73 350.91, 74.07 310.1, 168.79 201.05 M1.89 399.14 C47.9 345.58, 94.3 294.44, 168.53 207.45 M1.89 399.14 C39.1 357.52, 76.16 316.08, 168.53 207.45 M2.28 404.79 C51.88 348.44, 97.56 295.5, 168.26 213.85 M2.28 404.79 C61.46 335.88, 121.89 267.2, 168.26 213.85 M2.02 411.18 C46.09 359.64, 94.09 306.36, 168.66 219.49 M2.02 411.18 C48.26 356.86, 95.02 303.89, 168.66 219.49 M2.41 416.83 C41.16 371.65, 79.34 327.01, 168.4 225.89 M2.41 416.83 C49.07 362.44, 97.33 307.39, 168.4 225.89 M2.15 423.23 C43.92 378.68, 82.6 331.47, 168.79 231.53 M2.15 423.23 C65 348.8, 128.27 277.44, 168.79 231.53 M1.89 429.62 C49.5 375.55, 97.77 317.53, 168.53 237.93 M1.89 429.62 C65.35 355.33, 130.31 282.01, 168.53 237.93 M2.29 435.27 C52.39 378.95, 101.82 319.13, 168.27 244.33 M2.29 435.27 C67.44 359.29, 132.63 284.89, 168.27 244.33 M2.02 441.66 C66.42 367.09, 128.15 294.36, 168.66 249.97 M2.02 441.66 C48.54 389.98, 95.13 338, 168.66 249.97 M2.42 447.31 C59.42 377.92, 122.16 308.61, 168.4 256.37 M2.42 447.31 C56.54 384.85, 110.21 324.3, 168.4 256.37 M2.16 453.71 C50.76 397.38, 99.27 342.38, 168.8 262.01 M2.16 453.71 C62.74 381.91, 125.93 309.44, 168.8 262.01 M1.9 460.1 C36.42 418.62, 71.66 379.19, 168.54 268.41 M1.9 460.1 C44.78 410.26, 89.13 359.82, 168.54 268.41 M2.29 465.75 C38.78 423.4, 74.84 384.02, 168.27 274.8 M2.29 465.75 C57.52 401.23, 113.65 336.68, 168.27 274.8 M2.03 472.14 C37.2 433.73, 70.34 393.24, 168.67 280.45 M2.03 472.14 C44.42 421.14, 88.69 372.07, 168.67 280.45 M2.42 477.79 C68.11 405.3, 134.09 329.75, 168.41 286.85 M2.42 477.79 C35.86 437.17, 71.82 397.84, 168.41 286.85 M2.16 484.18 C38.39 441.28, 76.06 398.21, 168.8 292.49 M2.16 484.18 C42.76 438.34, 82.43 391.59, 168.8 292.49 M1.9 490.58 C49.9 434.65, 100.75 376.25, 168.54 298.89 M1.9 490.58 C49.85 436.73, 95.83 384.32, 168.54 298.89 M2.3 496.23 C46.99 444.7, 94.16 390.33, 168.28 305.28 M2.3 496.23 C49.29 442.64, 95.53 389.55, 168.28 305.28 M2.03 502.62 C40.01 460.71, 79.67 414.1, 168.67 310.93 M2.03 502.62 C40.99 458.97, 78.8 415.58, 168.67 310.93 M2.43 508.27 C55.11 448.16, 109.51 386.68, 168.41 317.33 M2.43 508.27 C56.79 444.58, 112.34 381.7, 168.41 317.33 M2.17 514.66 C57.83 449.88, 117.43 383.41, 168.81 322.97 M2.17 514.66 C64.94 442.68, 126.9 373.23, 168.81 322.97 M1.91 521.06 C41.27 473.85, 80.64 430.33, 168.55 329.37 M1.91 521.06 C52.08 464.56, 101.05 407.61, 168.55 329.37 M2.3 526.71 C36.57 486.74, 68.39 449.75, 168.28 335.76 M2.3 526.71 C38.05 483.26, 73.55 442.12, 168.28 335.76 M2.04 533.1 C42.66 486.44, 84.74 438.5, 168.68 341.41 M2.04 533.1 C64.73 461.58, 127.02 389.68, 168.68 341.41 M2.43 538.75 C40.81 494.25, 78.82 451.76, 168.42 347.8 M2.43 538.75 C54.47 478.46, 106.91 418.41, 168.42 347.8 M2.17 545.14 C52.77 491.74, 100.39 434.3, 168.81 353.45 M2.17 545.14 C48.45 491.83, 95.71 437.13, 168.81 353.45 M1.91 551.54 C48.24 500.29, 89.28 449.83, 168.55 359.85 M1.91 551.54 C38.15 509.24, 73.52 469.36, 168.55 359.85 M2.31 557.18 C46.27 506.67, 90.77 456.66, 168.94 365.49 M2.31 557.18 C49.1 505.91, 92.8 454.17, 168.94 365.49 M2.04 563.58 C62.79 493.35, 126.38 418.77, 168.68 371.89 M2.04 563.58 C47.55 509.16, 93.79 455.24, 168.68 371.89 M3.09 568.47 C65.15 494.2, 130.27 422.23, 168.42 378.28 M3.09 568.47 C48.06 516.83, 94.25 463.18, 168.42 378.28 M4.15 573.36 C51.09 518.44, 100.52 461.8, 168.82 383.93 M4.15 573.36 C53.6 515.77, 102.45 459.47, 168.82 383.93 M4.54 579 C39.44 536.54, 76.68 494.34, 168.55 390.32 M4.54 579 C64.44 509.36, 124.52 439.65, 168.55 390.32 M6.9 582.38 C62.94 515.25, 119.64 449.73, 168.95 395.97 M6.9 582.38 C51.16 530.71, 95.85 479.94, 168.95 395.97 M9.92 585.01 C47.75 540.52, 87.8 496.42, 168.69 402.37 M9.92 585.01 C62.31 521.93, 116.93 460.99, 168.69 402.37 M13.6 586.88 C68.32 526.04, 121.45 463.84, 168.43 408.76 M13.6 586.88 C46.41 549.25, 79.06 510.41, 168.43 408.76 M16.62 589.5 C61.6 537.46, 107.11 486.82, 168.82 414.41 M16.62 589.5 C58.07 542.14, 98.02 494.71, 168.82 414.41 M20.29 591.37 C61.59 541.54, 106.07 492.97, 168.56 420.8 M20.29 591.37 C74.53 530.41, 128.01 468.05, 168.56 420.8 M25.28 591.73 C70.59 539.7, 116.69 487.63, 168.95 426.45 M25.28 591.73 C81.13 527.59, 136.76 461.79, 168.95 426.45 M30.92 591.33 C58.68 555.74, 88.16 522.35, 168.69 432.85 M30.92 591.33 C78.5 535.54, 125.18 480.77, 168.69 432.85 M35.91 591.69 C63.75 558.61, 92.52 526.68, 168.43 439.24 M35.91 591.69 C64.86 556.54, 95.64 522.94, 168.43 439.24 M41.55 591.3 C69.71 560.58, 96.85 527.47, 168.83 444.89 M41.55 591.3 C74.34 556, 104.61 518.96, 168.83 444.89 M46.54 591.66 C73.77 558.35, 99.17 529.06, 168.56 451.28 M46.54 591.66 C72.6 560.75, 98.55 530.08, 168.56 451.28 M52.18 591.27 C80.87 557.38, 108.9 526.57, 168.96 456.93 M52.18 591.27 C89.72 545.94, 128.04 500.87, 168.96 456.93 M57.17 591.63 C89.28 554.61, 118.95 519.18, 168.7 463.32 M57.17 591.63 C92.71 551.07, 130.51 507.2, 168.7 463.32 M62.15 591.99 C84.57 564.85, 107.9 541.46, 168.44 469.72 M62.15 591.99 C93.08 556.44, 126.51 519.87, 168.44 469.72 M67.8 591.59 C97.35 555.71, 125.52 522.25, 168.83 475.37 M67.8 591.59 C91.16 564.26, 114.85 536.66, 168.83 475.37 M72.78 591.95 C104.01 555.97, 134.6 522.13, 168.57 481.76 M72.78 591.95 C97.47 565.47, 121.48 536.65, 168.57 481.76 M78.43 591.56 C107.18 560.01, 133.3 528.32, 168.96 487.41 M78.43 591.56 C108.77 556.38, 139.02 522.83, 168.96 487.41 M83.41 591.92 C98.34 573.76, 115.57 551.25, 168.7 493.8 M83.41 591.92 C111.37 559.18, 139.61 528.78, 168.7 493.8 M89.06 591.52 C110.26 567.74, 130.26 543.02, 168.44 500.2 M89.06 591.52 C116.06 562.49, 141.71 532.3, 168.44 500.2 M94.04 591.88 C114.65 564.84, 137.51 539.02, 168.84 505.85 M94.04 591.88 C112.33 570.13, 131.63 550.34, 168.84 505.85 M99.69 591.49 C116.13 572.14, 135.75 549.96, 168.57 512.24 M99.69 591.49 C116.09 572.37, 132.08 555.16, 168.57 512.24 M104.68 591.85 C126.27 568.27, 147.01 544.82, 168.97 517.89 M104.68 591.85 C129.64 564.6, 153.5 536.08, 168.97 517.89 M110.32 591.45 C131.58 567.69, 151.77 541.9, 168.71 524.28 M110.32 591.45 C134.48 563.51, 157.58 537.02, 168.71 524.28 M115.31 591.81 C136.4 567.79, 158.78 544.95, 169.1 529.93 M115.31 591.81 C132.17 573.36, 148.58 553.97, 169.1 529.93 M120.95 591.42 C136.04 574.46, 153.03 555.22, 168.84 536.32 M120.95 591.42 C134.92 575.3, 148.38 561.19, 168.84 536.32 M125.94 591.78 C134.97 577.47, 147.03 568.47, 168.58 542.72 M125.94 591.78 C141.56 571.75, 159.07 552.55, 168.58 542.72 M131.58 591.38 C138.74 580.99, 148.26 571.17, 168.97 548.37 M131.58 591.38 C140.3 580.55, 149.96 571.68, 168.97 548.37 M136.57 591.74 C146.18 582.04, 153.52 569.13, 168.71 554.76 M136.57 591.74 C143.71 582.54, 153.29 572.08, 168.71 554.76 M142.21 591.35 C149.4 582.89, 160.01 572.9, 169.11 560.41 M142.21 591.35 C151.66 579.95, 161.79 568.05, 169.11 560.41 M146.54 592.46 C153.99 582.77, 164.18 573.25, 168.19 567.56 M146.54 592.46 C153.31 584.88, 161.15 577.35, 168.19 567.56 M156.12 587.54 C159.82 582.16, 162.74 579, 165.3 576.98 M156.12 587.54 C158.47 585.3, 161.16 581.79, 165.3 576.98" stroke="#228be6" stroke-width="0.5" fill="none"></path><path d="M32 0 M32 0 C67.88 0.92, 105.16 0.67, 136.49 0 M32 0 C74.05 -1.6, 115.68 -0.79, 136.49 0 M136.49 0 C158.58 1.27, 170.24 9.82, 168.49 32 M136.49 0 C157.12 1.09, 167.97 9.61, 168.49 32 M168.49 32 C167.3 234.17, 167.71 435.71, 168.49 559.38 M168.49 32 C167.5 215.52, 167.28 398.74, 168.49 559.38 M168.49 559.38 C167.88 580.05, 157.59 591.14, 136.49 591.38 M168.49 559.38 C167.89 581.97, 159.82 591.94, 136.49 591.38 M136.49 591.38 C102.27 592.38, 72.8 592.9, 32 591.38 M136.49 591.38 C115.12 591.94, 93.33 591.73, 32 591.38 M32 591.38 C8.72 592.98, 1.85 581.22, 0 559.38 M32 591.38 C9.06 590.32, -1.7 580.17, 0 559.38 M0 559.38 C1.41 425.01, 0.33 290.41, 0 32 M0 559.38 C0.15 376.08, -0.04 192.75, 0 32 M0 32 C-0.63 11.67, 11.09 -1.89, 32 0 M0 32 C1.03 10.05, 10.19 0.9, 32 0" stroke="#000000" stroke-width="1" fill="none"></path></g><g transform="translate(1130.6411572459479 318.0959362414778) rotate(0 65 36)"><text x="0" y="20" font-family="Cascadia, Segoe UI Emoji" font-size="20px" fill="#000000" text-anchor="start" style="white-space: pre;" direction="ltr">Application</text><text x="0" y="44" font-family="Cascadia, Segoe UI Emoji" font-size="20px" fill="#000000" text-anchor="start" style="white-space: pre;" direction="ltr">Class </text><text x="0" y="68" font-family="Cascadia, Segoe UI Emoji" font-size="20px" fill="#000000" text-anchor="start" style="white-space: pre;" direction="ltr">(app.rb)</text></g><g stroke-linecap="round" transform="translate(1587.7018426410743 272.0986216688206) rotate(0 79.07590359220865 116.06425083024277)"><path d="M7.86 8.16 C7.86 8.16, 7.86 8.16, 7.86 8.16 M7.86 8.16 C7.86 8.16, 7.86 8.16, 7.86 8.16 M3.66 19.09 C8.43 17.27, 11.22 12.6, 18.1 2.48 M3.66 19.09 C7.92 15.83, 10.38 10.22, 18.1 2.48 M2.75 26.24 C9.34 14.85, 21.03 7.46, 24.4 1.33 M2.75 26.24 C8.21 20.55, 14.8 13.23, 24.4 1.33 M2.48 32.64 C8.76 26.81, 16.4 16.52, 30.7 0.18 M2.48 32.64 C12.35 22.03, 21.79 10.85, 30.7 0.18 M2.88 38.28 C12.06 30.17, 19.65 16.95, 34.37 2.05 M2.88 38.28 C13.69 26.02, 22.54 14.88, 34.37 2.05 M2.62 44.68 C14.72 31.99, 23.64 23.77, 39.36 2.41 M2.62 44.68 C13.47 30.59, 25.01 18.14, 39.36 2.41 M2.36 51.07 C18.04 33.69, 36.12 13.8, 45 2.02 M2.36 51.07 C16.11 36.75, 28.94 21.76, 45 2.02 M2.75 56.72 C15.17 46.51, 22.83 32.78, 49.99 2.38 M2.75 56.72 C13.23 43.85, 24.52 31, 49.99 2.38 M2.49 63.11 C18.32 43.87, 32.96 28.68, 55.63 1.98 M2.49 63.11 C17.49 45.69, 31.65 28.2, 55.63 1.98 M2.23 69.51 C23.35 46.08, 44.33 21.89, 60.62 2.34 M2.23 69.51 C14.38 54.32, 28.59 38.68, 60.62 2.34 M2.62 75.16 C19.92 55.46, 39.54 33.94, 66.26 1.95 M2.62 75.16 C27.36 47.2, 52.24 18.76, 66.26 1.95 M2.36 81.55 C20.5 60.38, 37.5 41.58, 71.25 2.31 M2.36 81.55 C16.35 64.32, 30.99 49.19, 71.25 2.31 M2.76 87.2 C15.81 69.07, 32.29 53.25, 76.89 1.91 M2.76 87.2 C24.15 62.13, 45.66 37.69, 76.89 1.91 M2.49 93.59 C23.59 69.61, 42.93 47.14, 81.88 2.27 M2.49 93.59 C31.7 60.4, 60.11 28.22, 81.88 2.27 M2.23 99.99 C17.25 78.17, 34.82 59.96, 86.86 2.63 M2.23 99.99 C32.35 63.99, 64.05 28.7, 86.86 2.63 M2.63 105.64 C34.95 67.96, 70.18 25.82, 92.51 2.24 M2.63 105.64 C37.87 65.51, 72.9 25.54, 92.51 2.24 M2.37 112.03 C24.83 86.36, 43.2 64.09, 97.49 2.6 M2.37 112.03 C34.97 73.93, 67.4 36.11, 97.49 2.6 M2.1 118.43 C26.66 88.75, 56.45 56.72, 103.14 2.21 M2.1 118.43 C37.11 76.76, 71.97 37.14, 103.14 2.21 M2.5 124.07 C27.05 95.6, 53 66.19, 108.12 2.57 M2.5 124.07 C41.13 77.78, 82.09 31.63, 108.12 2.57 M2.24 130.47 C24.63 104.88, 46.56 75.16, 113.77 2.17 M2.24 130.47 C44.01 82.46, 84.72 35.86, 113.77 2.17 M2.63 136.11 C34.9 100.66, 67.65 61.74, 118.76 2.53 M2.63 136.11 C32.23 101.64, 61.94 67.76, 118.76 2.53 M2.37 142.51 C37.32 100.94, 72.07 58.61, 124.4 2.14 M2.37 142.51 C42.79 98.54, 81.31 55.11, 124.4 2.14 M2.11 148.91 C50.79 91.51, 101.43 33.18, 129.39 2.5 M2.11 148.91 C49.85 93.62, 96.82 40.79, 129.39 2.5 M2.5 154.55 C39.82 109.24, 80.21 64.04, 135.03 2.1 M2.5 154.55 C51.86 101.51, 98.92 45.01, 135.03 2.1 M2.24 160.95 C40.6 118.89, 73.63 77.81, 139.36 3.22 M2.24 160.95 C46.47 109.05, 90.64 57.07, 139.36 3.22 M1.98 167.35 C51.79 107.61, 103.91 47.57, 143.69 4.33 M1.98 167.35 C59.57 103.13, 115.62 38.07, 143.69 4.33 M2.38 172.99 C34.16 133.78, 69.01 97.61, 147.36 6.2 M2.38 172.99 C52.62 114.3, 104.79 54.66, 147.36 6.2 M2.11 179.39 C53.23 119.11, 106.68 60.24, 150.38 8.83 M2.11 179.39 C37.56 138.93, 73.28 97.83, 150.38 8.83 M2.51 185.03 C40.79 144.82, 76.77 102.32, 153.4 11.45 M2.51 185.03 C45.63 135.11, 90.69 84.28, 153.4 11.45 M2.25 191.43 C45.71 144.07, 86.42 97.18, 155.77 14.83 M2.25 191.43 C63.76 122.83, 124.54 52.99, 155.77 14.83 M1.99 197.83 C46.11 147.4, 89.28 95.87, 157.47 18.96 M1.99 197.83 C63.42 127.38, 124.31 55.67, 157.47 18.96 M3.04 202.72 C41.4 161.14, 77.5 116.69, 157.87 24.61 M3.04 202.72 C53.16 147.74, 101.14 90.14, 157.87 24.61 M3.43 208.36 C63.42 139.8, 121.34 68.95, 158.92 29.49 M3.43 208.36 C56.15 148.19, 108.01 87.56, 158.92 29.49 M3.17 214.76 C55.12 153.17, 108.31 90.69, 160.62 33.63 M3.17 214.76 C59.29 149.71, 116.38 84.95, 160.62 33.63 M4.88 218.89 C37.69 181.04, 73 144.61, 160.36 40.03 M4.88 218.89 C36.24 181.37, 68.46 144.95, 160.36 40.03 M7.24 222.27 C62.33 160.93, 116.65 97.17, 160.1 46.42 M7.24 222.27 C67.2 154.68, 126.84 86.29, 160.1 46.42 M10.26 224.89 C46.69 181.39, 85.94 135.6, 160.5 52.07 M10.26 224.89 C56.24 173.52, 100.56 121.26, 160.5 52.07 M12.62 228.27 C51.08 187.99, 84.65 147.97, 160.23 58.46 M12.62 228.27 C69.61 161.61, 127.64 96.82, 160.23 58.46 M16.95 229.39 C52.3 188.38, 84.35 151.4, 160.63 64.11 M16.95 229.39 C64.88 172.41, 114.4 115.49, 160.63 64.11 M19.97 232.01 C57.72 187.07, 91.71 144.42, 160.37 70.5 M19.97 232.01 C56.05 189.35, 94.2 147.56, 160.37 70.5 M24.96 232.37 C71.57 180.31, 117.16 125.96, 160.11 76.9 M24.96 232.37 C60.64 192.31, 97.02 152.35, 160.11 76.9 M29.29 233.49 C59.62 196.84, 87.7 165.41, 160.5 82.55 M29.29 233.49 C59.53 198.74, 90.29 164.8, 160.5 82.55 M34.28 233.85 C76.75 184.67, 117.92 134.24, 160.24 88.94 M34.28 233.85 C61.97 201.88, 88.49 171.18, 160.24 88.94 M39.26 234.21 C72.77 194.81, 107.09 158.09, 160.63 94.59 M39.26 234.21 C66.45 203.96, 93.78 173.99, 160.63 94.59 M44.91 233.81 C80.04 193.76, 110.77 157.92, 160.37 100.98 M44.91 233.81 C85.97 185.73, 128.08 138.31, 160.37 100.98 M49.89 234.17 C78.3 200.37, 111.66 164.38, 160.11 107.38 M49.89 234.17 C80.34 198.01, 111.28 163.42, 160.11 107.38 M55.54 233.78 C80.05 205.06, 103.71 176.95, 160.51 113.03 M55.54 233.78 C84.52 199.65, 115.2 164.94, 160.51 113.03 M60.52 234.14 C86.57 208.18, 109.51 178.44, 160.24 119.42 M60.52 234.14 C98.03 188.99, 135.98 147.08, 160.24 119.42 M66.17 233.74 C93.29 203.89, 120.7 169.28, 160.64 125.07 M66.17 233.74 C101.86 191.24, 138.77 150.54, 160.64 125.07 M71.15 234.1 C98.04 204.54, 123.87 171.18, 160.38 131.46 M71.15 234.1 C106.28 192.73, 141.32 153.16, 160.38 131.46 M76.8 233.71 C109.62 196.18, 138.67 160.64, 160.12 137.86 M76.8 233.71 C99.65 207.94, 123.45 182.56, 160.12 137.86 M81.78 234.07 C107.54 201.21, 139.67 167.76, 160.51 143.5 M81.78 234.07 C107.52 203.79, 133.68 175.18, 160.51 143.5 M87.43 233.68 C109.55 208.87, 130.56 185.69, 160.25 149.9 M87.43 233.68 C113.23 202.24, 141.24 170.28, 160.25 149.9 M92.41 234.04 C105.86 216.56, 120.44 201.16, 160.64 155.55 M92.41 234.04 C109.73 213.63, 128.13 193.19, 160.64 155.55 M98.06 233.64 C112.68 217.23, 126.53 203.88, 160.38 161.94 M98.06 233.64 C118.59 209.3, 140.14 184.53, 160.38 161.94 M103.04 234 C115.07 221.58, 125.59 206.57, 160.12 168.34 M103.04 234 C117.19 215.88, 133.3 199.63, 160.12 168.34 M108.03 234.36 C129.22 212.44, 151 187.83, 160.52 173.98 M108.03 234.36 C118.18 220.99, 130.47 209.38, 160.52 173.98 M113.67 233.97 C124.12 221.03, 135.3 208.5, 160.25 180.38 M113.67 233.97 C125.68 221.25, 135.79 208.24, 160.25 180.38 M118.66 234.33 C130.23 220.7, 144.79 204.06, 160.65 186.02 M118.66 234.33 C131.53 220.21, 142.68 207.97, 160.65 186.02 M124.3 233.93 C133.08 223.24, 144.39 210.09, 160.39 192.42 M124.3 233.93 C134.65 222.79, 144.97 211.04, 160.39 192.42 M129.29 234.29 C134.8 228.12, 143.04 217.42, 158.81 200.33 M129.29 234.29 C135.76 226.15, 142.11 218.97, 158.81 200.33 M134.93 233.9 C141.56 226.75, 150.23 218.14, 157.9 207.48 M134.93 233.9 C142.07 225.44, 150.46 217.05, 157.9 207.48 M145.83 227.46 C148.71 223.37, 155.07 218.26, 156.98 214.63 M145.83 227.46 C150.06 222.22, 154.85 218.61, 156.98 214.63" stroke="#228be6" stroke-width="0.5" fill="none"></path><path d="M32 0 M32 0 C54.48 -1.95, 76.69 0.3, 126.15 0 M32 0 C59.97 -0.12, 87.54 -0.68, 126.15 0 M126.15 0 C145.61 1.95, 157.28 12.52, 158.15 32 M126.15 0 C145.89 -1.34, 160 8.76, 158.15 32 M158.15 32 C157.87 94.27, 158.68 154.36, 158.15 200.13 M158.15 32 C159.07 66.45, 158.02 100.67, 158.15 200.13 M158.15 200.13 C156.68 221.71, 145.91 232.57, 126.15 232.13 M158.15 200.13 C156.66 220.95, 145.91 233.12, 126.15 232.13 M126.15 232.13 C105.21 231.79, 83.88 231.29, 32 232.13 M126.15 232.13 C94.43 232.59, 62.29 231.63, 32 232.13 M32 232.13 C9.77 233.9, 1.49 222.77, 0 200.13 M32 232.13 C9.21 231.82, 2.26 219.75, 0 200.13 M0 200.13 C0.71 147.19, -2.81 95.09, 0 32 M0 200.13 C0.48 134.63, 0.64 71.65, 0 32 M0 32 C-0.84 9.01, 9.99 0.18, 32 0 M0 32 C-0.83 9.6, 10.22 -1, 32 0" stroke="#000000" stroke-width="1" fill="none"></path></g><g transform="translate(1628.7790068824286 367.83775802586746) rotate(0 30.499999999999886 24)"><text x="0" y="20" font-family="Cascadia, Segoe UI Emoji" font-size="20px" fill="#000000" text-anchor="start" style="white-space: pre;" direction="ltr">POST </text><text x="0" y="44" font-family="Cascadia, Segoe UI Emoji" font-size="20px" fill="#000000" text-anchor="start" style="white-space: pre;" direction="ltr">route</text></g><g transform="translate(734.4729519162611 18.63832999084758) rotate(0 75 22)"><text x="0" y="35" font-family="Cascadia, Segoe UI Emoji" font-size="36px" fill="#000000" text-anchor="start" style="white-space: pre;" direction="ltr">Sinatra</text></g><g stroke-linecap="round"><g transform="translate(898.1492051851642 213.53949317327118) rotate(0 88.156103576737 -0.46815792963684544)"><path d="M0.95 0.63 C30.13 0.33, 145.19 -1.12, 174.05 -1.57 M-0.01 -0.08 C29.64 -0.23, 146.89 0.03, 176.33 -0.14" stroke="#000000" stroke-width="2" fill="none"></path></g><g transform="translate(898.1492051851642 213.53949317327118) rotate(0 88.156103576737 -0.46815792963684544)"><path d="M149.2 8.77 C153.77 6.47, 158.94 7.24, 175.9 0.89 M148.21 10.69 C155.7 6.15, 165.02 3.29, 175.49 0.41" stroke="#000000" stroke-width="2" fill="none"></path></g><g transform="translate(898.1492051851642 213.53949317327118) rotate(0 88.156103576737 -0.46815792963684544)"><path d="M149.17 -11.75 C153.79 -9.68, 158.97 -4.54, 175.9 0.89 M148.18 -9.83 C155.62 -8.22, 164.95 -4.92, 175.49 0.41" stroke="#000000" stroke-width="2" fill="none"></path></g></g><mask></mask><g stroke-linecap="round"><g transform="translate(1063.3882951753362 611.1396930801177) rotate(0 -82.82495407089311 0.29450635870637143)"><path d="M0.43 -0.78 C-27.24 -0.99, -137.42 -0.41, -165.13 -0.3 M-0.81 1.42 C-28.71 1.28, -138.39 0.96, -166.08 0.88" stroke="#000000" stroke-width="2" fill="none"></path></g><g transform="translate(1063.3882951753362 611.1396930801177) rotate(0 -82.82495407089311 0.29450635870637143)"><path d="M-139.17 -9.3 C-149.4 -6.55, -159.6 -0.72, -166.6 1.97 M-137.31 -9.15 C-148.7 -5.89, -158.38 -2.22, -165.25 1.08" stroke="#000000" stroke-width="2" fill="none"></path></g><g transform="translate(1063.3882951753362 611.1396930801177) rotate(0 -82.82495407089311 0.29450635870637143)"><path d="M-139.23 11.22 C-149.6 6.34, -159.77 4.53, -166.6 1.97 M-137.37 11.37 C-148.86 7.35, -158.52 3.74, -165.25 1.08" stroke="#000000" stroke-width="2" fill="none"></path></g></g><mask></mask><g transform="translate(935.8898947518087 149.8936753356815) rotate(0 48 24)"><text x="0" y="20" font-family="Cascadia, Segoe UI Emoji" font-size="20px" fill="#000000" text-anchor="start" style="white-space: pre;" direction="ltr">Forwards</text><text x="0" y="44" font-family="Cascadia, Segoe UI Emoji" font-size="20px" fill="#000000" text-anchor="start" style="white-space: pre;" direction="ltr">requests</text></g><g transform="translate(942.1412416368851 554.9960302586499) rotate(0 48 24)"><text x="0" y="20" font-family="Cascadia, Segoe UI Emoji" font-size="20px" fill="#000000" text-anchor="start" style="white-space: pre;" direction="ltr">Sends</text><text x="0" y="44" font-family="Cascadia, Segoe UI Emoji" font-size="20px" fill="#000000" text-anchor="start" style="white-space: pre;" direction="ltr">Requests</text></g><g stroke-linecap="round"><g transform="translate(1315.3539196839297 331.6245282291549) rotate(0 115.0618640278285 1.1246403355887367)"><path d="M0.97 -0.61 C39.46 -0.19, 192.25 1.22, 230.11 1.8 M0.01 1.69 C38.5 2.28, 191.27 2.43, 229.68 2.85" stroke="#000000" stroke-width="2" fill="none"></path></g><g transform="translate(1315.3539196839297 331.6245282291549) rotate(0 115.0618640278285 1.1246403355887367)"><path d="M200.42 14.6 C206.49 8.69, 214.74 6.49, 231.59 1.7 M201.93 12.35 C210.12 11.23, 217.9 7.11, 230.51 3.43" stroke="#000000" stroke-width="2" fill="none"></path></g><g transform="translate(1315.3539196839297 331.6245282291549) rotate(0 115.0618640278285 1.1246403355887367)"><path d="M200.54 -5.92 C206.46 -7.09, 214.69 -4.54, 231.59 1.7 M202.05 -8.17 C210.29 -3.51, 218.04 -1.84, 230.51 3.43" stroke="#000000" stroke-width="2" fill="none"></path></g></g><mask></mask><g stroke-linecap="round"><g transform="translate(1541.609062875646 457.5019398673658) rotate(0 -111.60724752323563 0.6814129863506935)"><path d="M0.74 0.16 C-36.61 0.15, -186.01 0.46, -223.35 0.84 M-0.33 -0.81 C-37.85 -0.72, -186.73 1.92, -223.95 2.17" stroke="#000000" stroke-width="2" fill="none"></path></g><g transform="translate(1541.609062875646 457.5019398673658) rotate(0 -111.60724752323563 0.6814129863506935)"><path d="M-195.64 -7.36 C-206.7 -3.24, -214.32 -2.49, -222.12 2.12 M-196.78 -8.38 C-207.31 -3.32, -218.79 -0.31, -223.35 2.67" stroke="#000000" stroke-width="2" fill="none"></path></g><g transform="translate(1541.609062875646 457.5019398673658) rotate(0 -111.60724752323563 0.6814129863506935)"><path d="M-195.38 13.16 C-206.68 9.8, -214.4 3.07, -222.12 2.12 M-196.52 12.14 C-206.96 9.06, -218.55 3.91, -223.35 2.67" stroke="#000000" stroke-width="2" fill="none"></path></g></g><mask></mask><g transform="translate(1357.6886223103047 289.44462978702524) rotate(0 30.5 12)"><text x="0" y="20" font-family="Cascadia, Segoe UI Emoji" font-size="20px" fill="#000000" text-anchor="start" style="white-space: pre;" direction="ltr">Calls</text></g><g transform="translate(1458.095429895834 419.78521234086014) rotate(0 42 12)"><text x="0" y="20" font-family="Cascadia, Segoe UI Emoji" font-size="20px" fill="#000000" text-anchor="start" style="white-space: pre;" direction="ltr">Returns</text></g></svg>