<svg version="1.1" xmlns="http://www.w3.org/2000/svg" viewBox="0 0 1803.4701953941533 640.2363452003164" width="3606.9403907883066" height="1280.4726904006327">
  <!-- svg-source:excalidraw -->
  
  <defs>
    <style class="style-fonts">
      @font-face {
        font-family: "Virgil";
        src: url("https://excalidraw.com/Virgil.woff2");
      }
      @font-face {
        font-family: "Cascadia";
        src: url("https://excalidraw.com/Cascadia.woff2");
      }
    </style>
  </defs>
  <rect x="0" y="0" width="1803.4701953941533" height="640.2363452003164" fill="#f8f9fa"></rect><g stroke-linecap="round" transform="translate(10 24.00834651606675) rotate(0 72.03586933849226 303.11399934212477)"><path d="M7.86 8.16 C7.86 8.16, 7.86 8.16, 7.86 8.16 M7.86 8.16 C7.86 8.16, 7.86 8.16, 7.86 8.16 M3.66 19.09 C6.6 16.88, 11.01 13.16, 18.1 2.48 M3.66 19.09 C8.84 13.86, 13.06 7.68, 18.1 2.48 M2.75 26.24 C10.42 16.89, 16.43 8.81, 24.4 1.33 M2.75 26.24 C10.03 17.76, 15.41 10.63, 24.4 1.33 M1.83 33.39 C12.24 21.25, 21.59 12.65, 30.7 0.18 M1.83 33.39 C8.74 26.46, 14 19.01, 30.7 0.18 M1.57 39.79 C14.95 23.46, 28.92 8.94, 34.37 2.05 M1.57 39.79 C11.02 28.02, 22.39 15.6, 34.37 2.05 M1.96 45.43 C11.69 33.46, 21.78 23.1, 39.36 2.41 M1.96 45.43 C13.96 31.13, 26.16 17.67, 39.36 2.41 M1.7 51.83 C14.02 39.18, 26.04 25.89, 45 2.02 M1.7 51.83 C15.16 37.88, 27.3 21.99, 45 2.02 M1.44 58.23 C19.84 40.89, 33.67 20.39, 49.99 2.38 M1.44 58.23 C16.77 40.94, 32.73 22.1, 49.99 2.38 M1.83 63.87 C21.29 39.45, 43.93 15.6, 55.63 1.98 M1.83 63.87 C20.42 43.27, 39.09 21.3, 55.63 1.98 M1.57 70.27 C25.46 44.68, 49.2 16.88, 60.62 2.34 M1.57 70.27 C23.04 44.99, 46.39 18.92, 60.62 2.34 M1.97 75.91 C24.11 50.27, 49.84 20.12, 66.26 1.95 M1.97 75.91 C27.28 47.66, 52.18 18.79, 66.26 1.95 M1.71 82.31 C17.25 64.31, 28.24 48.74, 71.25 2.31 M1.71 82.31 C28.92 50.71, 56.06 20.78, 71.25 2.31 M2.1 87.95 C20.2 65.05, 44.34 39.37, 76.23 2.67 M2.1 87.95 C26.45 58.85, 51.49 30.2, 76.23 2.67 M1.84 94.35 C22.54 67.46, 48.58 41.7, 81.88 2.27 M1.84 94.35 C33.02 59.08, 62.72 23.59, 81.88 2.27 M1.58 100.75 C20.17 76.76, 41.53 55.27, 86.86 2.63 M1.58 100.75 C30.98 64.74, 61.53 29.66, 86.86 2.63 M1.97 106.39 C26.69 75.71, 55.14 46.8, 92.51 2.24 M1.97 106.39 C26.13 79.3, 49.36 50.72, 92.51 2.24 M1.71 112.79 C35.19 72.49, 68.58 34.26, 97.49 2.6 M1.71 112.79 C40.41 69.56, 77.36 25.57, 97.49 2.6 M2.1 118.43 C40.32 74.88, 79.25 32.33, 103.14 2.21 M2.1 118.43 C32.83 83.28, 62.56 48.15, 103.14 2.21 M1.84 124.83 C25.88 96.56, 50.58 67.68, 108.12 2.57 M1.84 124.83 C24.33 98.39, 46.66 71.63, 108.12 2.57 M1.58 131.23 C35.16 95.64, 67.18 56.19, 113.77 2.17 M1.58 131.23 C25.8 100.4, 52.29 70.57, 113.77 2.17 M1.98 136.87 C35.74 100.25, 65.15 64.17, 120.07 1.02 M1.98 136.87 C29.44 104.41, 55.71 72.74, 120.07 1.02 M1.72 143.27 C33.34 110.01, 62.27 75.08, 124.4 2.14 M1.72 143.27 C42.16 94.87, 82.32 48.29, 124.4 2.14 M2.11 148.91 C38.71 106.69, 77.65 59.44, 128.07 4.01 M2.11 148.91 C30.96 114.53, 60.86 80.98, 128.07 4.01 M1.85 155.31 C37.92 114.24, 69.98 76.43, 132.4 5.12 M1.85 155.31 C53.57 95.69, 106.48 36.93, 132.4 5.12 M1.59 161.71 C29.86 128.99, 57.58 96.15, 135.42 7.75 M1.59 161.71 C34.11 123.43, 67.07 85.93, 135.42 7.75 M1.98 167.35 C35.75 130.51, 68.2 94.28, 138.44 10.37 M1.98 167.35 C47.49 114.46, 92.75 62.9, 138.44 10.37 M1.72 173.75 C43.25 125.1, 86.96 75.37, 140.8 13.75 M1.72 173.75 C45.96 124.28, 89.33 75.45, 140.8 13.75 M2.11 179.39 C33.17 142.98, 65.35 107.37, 142.51 17.88 M2.11 179.39 C50.05 124.22, 99.83 67.64, 142.51 17.88 M1.85 185.79 C45.73 132.81, 93.31 80.9, 143.56 22.77 M1.85 185.79 C40.88 139.47, 79.77 94.71, 143.56 22.77 M1.59 192.19 C34.35 155.87, 65.58 121.52, 145.92 26.15 M1.59 192.19 C57.12 129.18, 113.18 64.3, 145.92 26.15 M1.99 197.83 C39.14 155.06, 75.38 110.14, 145.66 32.55 M1.99 197.83 C31.89 161.79, 62.14 127.19, 145.66 32.55 M1.72 204.23 C49.25 151.06, 98.26 94.57, 146.06 38.19 M1.72 204.23 C46.13 153.69, 90.47 104.96, 146.06 38.19 M2.12 209.87 C44.7 155.99, 89.82 105.95, 145.8 44.59 M2.12 209.87 C32.65 175.96, 60.41 141.38, 145.8 44.59 M1.86 216.27 C34.68 177.33, 65.24 142.38, 145.53 50.99 M1.86 216.27 C38.54 173.2, 73.88 131.23, 145.53 50.99 M1.6 222.66 C50.02 166.17, 99.86 110.39, 145.93 56.63 M1.6 222.66 C52.58 163.21, 101.93 106.34, 145.93 56.63 M1.99 228.31 C42.73 181.1, 84.74 134.53, 145.67 63.03 M1.99 228.31 C49.17 173.83, 97.15 120.01, 145.67 63.03 M1.73 234.71 C33.59 201.78, 64.87 166.16, 146.06 68.67 M1.73 234.71 C54.81 173.81, 106.91 112.13, 146.06 68.67 M2.12 240.35 C36.62 197.67, 70.73 159.43, 145.8 75.07 M2.12 240.35 C51.02 185.37, 97.75 129.88, 145.8 75.07 M1.86 246.75 C39.44 203.08, 74.67 162.13, 145.54 81.47 M1.86 246.75 C56.66 184.63, 110.81 120.95, 145.54 81.47 M2.26 252.39 C54.9 192.62, 105.07 135.04, 145.93 87.11 M2.26 252.39 C54.08 191.52, 106.98 132.29, 145.93 87.11 M2 258.79 C33.02 220.91, 64.44 186.09, 145.67 93.51 M2 258.79 C53.1 202.06, 103.33 143.15, 145.67 93.51 M1.73 265.19 C33.13 228.62, 62.47 194.94, 146.07 99.15 M1.73 265.19 C39.17 220.35, 76.75 176.81, 146.07 99.15 M2.13 270.83 C43.35 223.2, 86.28 173.25, 145.81 105.55 M2.13 270.83 C36.15 234.45, 68.43 195.35, 145.81 105.55 M1.87 277.23 C48.84 220.16, 98.55 165.53, 145.54 111.94 M1.87 277.23 C55.62 217.31, 108.69 155.53, 145.54 111.94 M2.26 282.87 C45.07 237.07, 83.79 190.44, 145.94 117.59 M2.26 282.87 C60.12 218.13, 116.61 154.05, 145.94 117.59 M2 289.27 C31.2 255.09, 59.56 220.02, 145.68 123.99 M2 289.27 C52.5 230.14, 102.51 172.11, 145.68 123.99 M1.74 295.66 C38.85 252.89, 76.09 209.71, 146.07 129.63 M1.74 295.66 C38.65 256.61, 72.17 215.9, 146.07 129.63 M2.13 301.31 C58.08 233.62, 115.05 169.26, 145.81 136.03 M2.13 301.31 C58.14 239.89, 111.47 176.53, 145.81 136.03 M1.87 307.71 C41.72 258.73, 83.8 211.51, 145.55 142.42 M1.87 307.71 C56.87 243.45, 112.62 180.42, 145.55 142.42 M2.27 313.35 C39.5 271.33, 76.36 229.38, 145.94 148.07 M2.27 313.35 C51.12 255.05, 100.98 197.32, 145.94 148.07 M2.01 319.75 C48.63 266.59, 94.83 210.85, 145.68 154.47 M2.01 319.75 C35.72 281.49, 70.87 241.55, 145.68 154.47 M1.74 326.14 C34.21 287.39, 68.41 248.11, 146.08 160.11 M1.74 326.14 C39.42 283.06, 76.56 238.34, 146.08 160.11 M2.14 331.79 C47.04 283.27, 88.66 231.67, 145.82 166.51 M2.14 331.79 C36.41 290.7, 73.17 251.02, 145.82 166.51 M1.88 338.19 C52.13 282.74, 101.51 223.88, 145.55 172.9 M1.88 338.19 C36.4 298.92, 71.12 258.72, 145.55 172.9 M2.27 343.83 C35.67 309.57, 66.37 273.93, 145.95 178.55 M2.27 343.83 C41.03 299.85, 80.24 254.46, 145.95 178.55 M2.01 350.23 C46.75 298.36, 94.05 246.74, 145.69 184.94 M2.01 350.23 C49.87 294.39, 98.32 239.37, 145.69 184.94 M1.75 356.62 C43.88 308.51, 88.31 259.1, 146.08 190.59 M1.75 356.62 C58.33 292.5, 113.3 229.43, 146.08 190.59 M2.14 362.27 C31.83 326.84, 63.42 291.58, 145.82 196.99 M2.14 362.27 C45.17 312.37, 86.93 264.42, 145.82 196.99 M1.88 368.66 C58.36 304.28, 117.39 236.05, 146.22 202.63 M1.88 368.66 C40.74 325.11, 78.6 281.28, 146.22 202.63 M2.28 374.31 C34.21 334.31, 68.24 296.62, 145.95 209.03 M2.28 374.31 C56.78 310.16, 111.72 246.11, 145.95 209.03 M2.02 380.71 C35.29 345.06, 67.54 306.6, 145.69 215.42 M2.02 380.71 C34.43 343.91, 66.23 306.81, 145.69 215.42 M1.75 387.1 C48.02 332.23, 98.2 280.41, 146.09 221.07 M1.75 387.1 C57.91 320.64, 116 254.65, 146.09 221.07 M2.15 392.75 C44.48 345.28, 85.24 294.83, 145.83 227.46 M2.15 392.75 C56.95 331.77, 108.63 269.01, 145.83 227.46 M1.89 399.14 C54.1 339.25, 104.06 278.49, 146.22 233.11 M1.89 399.14 C34.94 361.14, 67.64 322.25, 146.22 233.11 M2.28 404.79 C54.95 341.4, 110.56 279.54, 145.96 239.51 M2.28 404.79 C39.28 364.08, 75.07 323.11, 145.96 239.51 M2.02 411.18 C52.18 354.19, 101.09 299.59, 145.7 245.9 M2.02 411.18 C44 363.27, 87.08 313.42, 145.7 245.9 M1.76 417.58 C40.25 371.82, 81.32 326.61, 146.09 251.55 M1.76 417.58 C31 382.25, 61.38 349.11, 146.09 251.55 M2.15 423.23 C58.56 359.57, 118.48 294.2, 145.83 257.94 M2.15 423.23 C50.34 366.95, 99.37 309.94, 145.83 257.94 M1.89 429.62 C35.18 395.45, 63.61 360.03, 146.22 263.59 M1.89 429.62 C30.48 396.37, 59.11 362.29, 146.22 263.59 M2.29 435.27 C32.88 398.74, 62.87 363.58, 145.96 269.99 M2.29 435.27 C58.62 369.39, 116.55 303.4, 145.96 269.99 M2.02 441.66 C38.65 398.78, 76.54 356.33, 145.7 276.38 M2.02 441.66 C33.22 402.87, 65.6 365.69, 145.7 276.38 M2.42 447.31 C31.92 413.22, 59.38 380.31, 146.1 282.03 M2.42 447.31 C36.28 406.22, 71.91 366.33, 146.1 282.03 M2.16 453.71 C44.21 400.05, 91.04 349.36, 145.83 288.42 M2.16 453.71 C39.16 409.95, 77.26 366.94, 145.83 288.42 M1.9 460.1 C44.01 410.02, 89.3 360.93, 146.23 294.07 M1.9 460.1 C52.14 401.09, 102.26 343.31, 146.23 294.07 M2.29 465.75 C47.37 414.26, 93.29 362.7, 145.97 300.46 M2.29 465.75 C51.88 409.87, 102.11 352.98, 145.97 300.46 M2.03 472.14 C57.33 409.48, 111.45 345.34, 145.71 306.86 M2.03 472.14 C45.02 419.16, 90.78 368.58, 145.71 306.86 M2.42 477.79 C35.86 443.47, 64.99 406.41, 146.1 312.51 M2.42 477.79 C41.82 432.19, 82.58 386.17, 146.1 312.51 M2.16 484.18 C38.39 441.72, 77.23 397.88, 145.84 318.9 M2.16 484.18 C36.57 443.62, 72.86 403.21, 145.84 318.9 M1.9 490.58 C37.2 450.54, 73.66 407.17, 146.23 324.55 M1.9 490.58 C47.38 436.2, 95.05 381.87, 146.23 324.55 M2.3 496.23 C44.76 445.05, 86.06 398.49, 145.97 330.94 M2.3 496.23 C56.81 435.19, 108.82 373.84, 145.97 330.94 M2.03 502.62 C36.73 462.11, 68.84 421.83, 145.71 337.34 M2.03 502.62 C48.35 446.14, 96.9 392.7, 145.71 337.34 M2.43 508.27 C55.86 451.38, 104.59 392.21, 146.11 342.99 M2.43 508.27 C37.15 468.48, 70.12 429.53, 146.11 342.99 M2.17 514.66 C40.07 470.14, 77.61 427.52, 145.84 349.38 M2.17 514.66 C56.06 452.05, 110.14 388.69, 145.84 349.38 M1.91 521.06 C37.17 477.08, 74.62 434.83, 146.24 355.03 M1.91 521.06 C43.09 472.89, 86.19 423.38, 146.24 355.03 M2.3 526.71 C32.31 493.89, 62.98 458.51, 145.98 361.42 M2.3 526.71 C52.91 469.68, 104.9 410.05, 145.98 361.42 M2.04 533.1 C52.52 475.99, 100.17 419.91, 145.72 367.82 M2.04 533.1 C47.7 479.59, 92.35 426.95, 145.72 367.82 M2.43 538.75 C35.58 497.19, 70.93 456.45, 146.11 373.46 M2.43 538.75 C54.95 478.56, 106.55 418.82, 146.11 373.46 M2.17 545.14 C44.91 497.09, 88.94 446.73, 145.85 379.86 M2.17 545.14 C30.67 511.41, 61.35 478.62, 145.85 379.86 M1.91 551.54 C50.4 496.05, 97.12 440.57, 146.24 385.51 M1.91 551.54 C50.73 496.36, 98.02 441.07, 146.24 385.51 M2.31 557.18 C55.53 496.97, 107.31 436.39, 145.98 391.9 M2.31 557.18 C53.32 498.66, 102.63 440.79, 145.98 391.9 M2.04 563.58 C43.01 516.89, 83.61 466.93, 146.38 397.55 M2.04 563.58 C59.57 499.54, 115.51 434.49, 146.38 397.55 M2.44 569.23 C40.38 527.82, 78.39 484.07, 146.12 403.94 M2.44 569.23 C42.06 524.14, 82.06 476.91, 146.12 403.94 M2.18 575.62 C52.54 517.35, 103.11 459.04, 145.85 410.34 M2.18 575.62 C45.66 526.21, 87.8 477.36, 145.85 410.34 M1.26 582.78 C43.54 535.12, 88.8 487.75, 146.25 415.99 M1.26 582.78 C33.86 546.67, 66.21 510.45, 146.25 415.99 M2.97 586.91 C32.21 551.81, 63.05 521.85, 145.99 422.38 M2.97 586.91 C34.82 550.1, 66.37 511.62, 145.99 422.38 M4.67 591.04 C42.1 546.73, 84.03 501.95, 146.38 428.03 M4.67 591.04 C51.57 536.28, 97.87 482.58, 146.38 428.03 M6.38 595.18 C58.35 537.28, 107.18 481.4, 146.12 434.42 M6.38 595.18 C55.47 539.4, 105.11 482.53, 146.12 434.42 M8.74 598.56 C61.02 539.24, 112.63 480.95, 145.86 440.82 M8.74 598.56 C48.63 553.87, 85.97 510.29, 145.86 440.82 M11.76 601.18 C58.03 544.4, 108.72 490.64, 146.25 446.46 M11.76 601.18 C48.59 558.87, 86.19 514.46, 146.25 446.46 M15.44 603.05 C51.23 560.79, 85.39 520.69, 145.99 452.86 M15.44 603.05 C48.43 566.04, 81.8 529.72, 145.99 452.86 M19.11 604.92 C68 546.65, 117.7 489.61, 146.39 458.51 M19.11 604.92 C47.07 573.35, 75.45 541.1, 146.39 458.51 M23.44 606.03 C72.15 550.21, 119.7 495.05, 146.13 464.9 M23.44 606.03 C64.51 560.32, 106.07 512.78, 146.13 464.9 M27.12 607.9 C59.41 571.43, 93.8 532.57, 145.86 471.3 M27.12 607.9 C51.27 577.08, 76.37 548.7, 145.86 471.3 M32.1 608.26 C61.63 571.45, 96.89 534.49, 146.26 476.94 M32.1 608.26 C70.98 562.08, 112.42 516.11, 146.26 476.94 M37.75 607.87 C64.52 575.86, 95.25 543.91, 146 483.34 M37.75 607.87 C69.24 570.94, 100.88 534.78, 146 483.34 M42.73 608.23 C71.56 578.78, 98.16 548.06, 146.39 488.98 M42.73 608.23 C66.73 581.18, 90.5 554.96, 146.39 488.98 M48.38 607.83 C69.38 585.49, 90.63 558.23, 146.13 495.38 M48.38 607.83 C81.88 569.33, 113.15 532.13, 146.13 495.38 M53.36 608.19 C85.66 571.64, 115.06 536.74, 145.87 501.78 M53.36 608.19 C73.21 586.54, 91.21 563.86, 145.87 501.78 M59.01 607.8 C83.62 580.19, 110.57 550.21, 146.26 507.42 M59.01 607.8 C76.79 587.47, 93.7 565.7, 146.26 507.42 M63.99 608.16 C86.04 579.88, 112.34 556.6, 146 513.82 M63.99 608.16 C83.64 583.63, 104.16 560.11, 146 513.82 M69.64 607.77 C85.11 587.01, 102.91 569.82, 146.4 519.46 M69.64 607.77 C83.63 589.15, 101.19 571.36, 146.4 519.46 M74.62 608.13 C100.17 575.55, 129.86 545.02, 146.14 525.86 M74.62 608.13 C91.08 588.06, 109.04 569.58, 146.14 525.86 M80.27 607.73 C106.73 576.56, 132.53 548.63, 145.87 532.26 M80.27 607.73 C96.39 589.87, 111.61 571.37, 145.87 532.26 M85.25 608.09 C104.45 590.3, 117.51 569.8, 146.27 537.9 M85.25 608.09 C107.99 582.7, 130.55 556.16, 146.27 537.9 M90.9 607.7 C103.08 592.47, 118.79 576.92, 146.01 544.3 M90.9 607.7 C104.65 592.14, 116.73 578.1, 146.01 544.3 M95.88 608.06 C112.81 587.83, 129.32 568.29, 146.4 549.94 M95.88 608.06 C111.94 588.56, 128.94 568.23, 146.4 549.94 M101.53 607.66 C109.06 598.76, 121.36 586.86, 146.14 556.34 M101.53 607.66 C117.62 591.31, 131.27 573.46, 146.14 556.34 M106.51 608.02 C113.58 599.51, 125.75 587.75, 146.53 561.98 M106.51 608.02 C121.66 590.49, 135.54 575.25, 146.53 561.98 M112.16 607.63 C123.36 591.66, 138.13 577.08, 146.27 568.38 M112.16 607.63 C123.49 596.41, 133.13 583.83, 146.27 568.38 M117.14 607.99 C123.07 598.98, 129.36 591.42, 145.36 575.54 M117.14 607.99 C123.25 601.92, 128.13 595.7, 145.36 575.54 M122.13 608.35 C128.55 601.53, 135.29 590.63, 144.44 582.69 M122.13 608.35 C129.09 601.22, 135.47 594.65, 144.44 582.69" stroke="#fa5252" stroke-width="0.5" fill="none"></path><path d="M32 0 M32 0 C52.87 -0.24, 75.59 -1.68, 112.07 0 M32 0 C54.91 0.21, 79.37 0.09, 112.07 0 M112.07 0 C134.79 -0.43, 143.53 11.52, 144.07 32 M112.07 0 C134.26 -1.88, 142.54 10.48, 144.07 32 M144.07 32 C144.86 182.07, 143.76 332.31, 144.07 574.23 M144.07 32 C141.96 222.23, 142.25 411.64, 144.07 574.23 M144.07 574.23 C144.56 594.11, 134.23 606.42, 112.07 606.23 M144.07 574.23 C143.41 595.2, 133.57 604.29, 112.07 606.23 M112.07 606.23 C85.03 606.29, 59.13 605.48, 32 606.23 M112.07 606.23 C90.7 606.89, 70.7 606.73, 32 606.23 M32 606.23 C10.37 605.34, -0.03 595.35, 0 574.23 M32 606.23 C11.61 605.37, -2.01 596.49, 0 574.23 M0 574.23 C-2.05 442.06, -0.65 309.38, 0 32 M0 574.23 C1.4 377.9, 1.29 180.57, 0 32 M0 32 C0.03 11.97, 10.45 1.27, 32 0 M0 32 C-0.36 11.23, 12.31 0.66, 32 0" stroke="#000000" stroke-width="1" fill="none"></path></g><g transform="translate(47.479005278432396 299.85169423535615) rotate(0 36 24)"><text x="0" y="20" font-family="Cascadia, Segoe UI Emoji" font-size="20px" fill="#000000" text-anchor="start" style="white-space: pre;" direction="ltr">HTTP</text><text x="0" y="44" font-family="Cascadia, Segoe UI Emoji" font-size="20px" fill="#000000" text-anchor="start" style="white-space: pre;" direction="ltr">Client</text></g><g stroke-linecap="round"><g transform="translate(204.36600506982313 104.52714819744699) rotate(0 237.51606895808692 0.32629815993287536)"><path d="M0.98 0.06 C80.03 -0.02, 395.9 -0.03, 475 0.24 M0.03 -0.95 C78.86 -0.93, 394.78 1.46, 473.95 1.6" stroke="#000000" stroke-width="1" fill="none"></path></g><g transform="translate(204.36600506982313 104.52714819744699) rotate(0 237.51606895808692 0.32629815993287536)"><path d="M445.81 11.4 C455.12 8.53, 467.57 3.37, 474.88 2.96 M446.48 11.13 C454.6 8.16, 464.59 5.16, 474.39 1.59" stroke="#000000" stroke-width="1" fill="none"></path></g><g transform="translate(204.36600506982313 104.52714819744699) rotate(0 237.51606895808692 0.32629815993287536)"><path d="M445.91 -9.12 C455.31 -4.69, 467.72 -2.55, 474.88 2.96 M446.58 -9.39 C454.7 -5.43, 464.64 -1.5, 474.39 1.59" stroke="#000000" stroke-width="1" fill="none"></path></g></g><mask></mask><g stroke-linecap="round"><g transform="translate(680.1964618391044 573.4539831687144) rotate(0 -229.80606409137306 0.5637547286504514)"><path d="M0.89 -1.01 C-75.85 -0.83, -383.22 1.74, -460.02 2.14 M-0.11 1.07 C-76.96 1.4, -383.83 -0.01, -460.5 0.24" stroke="#000000" stroke-width="1" fill="none"></path></g><g transform="translate(680.1964618391044 573.4539831687144) rotate(0 -229.80606409137306 0.5637547286504514)"><path d="M-433.99 -8.51 C-440.87 -4.66, -451.45 -3.81, -458.97 1.59 M-433.09 -10.86 C-442.16 -5.72, -452.91 -2.83, -460.99 0.55" stroke="#000000" stroke-width="1" fill="none"></path></g><g transform="translate(680.1964618391044 573.4539831687144) rotate(0 -229.80606409137306 0.5637547286504514)"><path d="M-434.01 12.02 C-441.07 9.04, -451.64 3.07, -458.97 1.59 M-433.11 9.66 C-442.27 7.34, -453.01 2.78, -460.99 0.55" stroke="#000000" stroke-width="1" fill="none"></path></g></g><mask></mask><g transform="translate(320.8882034044377 10) rotate(0 129.5 60)"><text x="129.5" y="20" font-family="Cascadia, Segoe UI Emoji" font-size="20px" fill="#000000" text-anchor="middle" style="white-space: pre;" direction="ltr">HTTP Request</text><text x="129.5" y="44" font-family="Cascadia, Segoe UI Emoji" font-size="20px" fill="#000000" text-anchor="middle" style="white-space: pre;" direction="ltr">POST /artists</text><text x="129.5" y="68" font-family="Cascadia, Segoe UI Emoji" font-size="20px" fill="#000000" text-anchor="middle" style="white-space: pre;" direction="ltr">name = 'Billie Eilish'</text><text x="129.5" y="92" font-family="Cascadia, Segoe UI Emoji" font-size="20px" fill="#000000" text-anchor="middle" style="white-space: pre;" direction="ltr">genre = 'Pop'</text><text x="129.5" y="116" font-family="Cascadia, Segoe UI Emoji" font-size="20px" fill="#000000" text-anchor="middle" style="white-space: pre;" direction="ltr"></text></g><g transform="translate(226.86606812231616 484.1428542089981) rotate(0 240.5 36)"><text x="240.5" y="20" font-family="Cascadia, Segoe UI Emoji" font-size="20px" fill="#000000" text-anchor="middle" style="white-space: pre;" direction="ltr">HTTP Response</text><text x="240.5" y="44" font-family="Cascadia, Segoe UI Emoji" font-size="20px" fill="#000000" text-anchor="middle" style="white-space: pre;" direction="ltr">app.rb returns list of artists containing</text><text x="240.5" y="68" font-family="Cascadia, Segoe UI Emoji" font-size="20px" fill="#000000" text-anchor="middle" style="white-space: pre;" direction="ltr">the new artist: 'Billie Eilish' </text></g><g stroke-linecap="round" transform="translate(719.1644210558338 36.372929134106585) rotate(0 84.24416828440519 295.68870766409555)"><path d="M7.86 8.16 C7.86 8.16, 7.86 8.16, 7.86 8.16 M7.86 8.16 C7.86 8.16, 7.86 8.16, 7.86 8.16 M3.66 19.09 C4.97 13.69, 9.82 12.08, 18.1 2.48 M3.66 19.09 C8.23 15.13, 13.29 10.36, 18.1 2.48 M2.75 26.24 C11.51 14.69, 18.61 5.01, 24.4 1.33 M2.75 26.24 C11.51 16.93, 19.18 6.62, 24.4 1.33 M1.83 33.39 C13.47 19.39, 23.67 9.39, 30.7 0.18 M1.83 33.39 C8.52 25.68, 16.8 18.4, 30.7 0.18 M1.57 39.79 C9.32 33.32, 16.09 25.14, 34.37 2.05 M1.57 39.79 C8.14 32.88, 14.96 25.28, 34.37 2.05 M1.96 45.43 C14.37 32.6, 22.83 19.38, 39.36 2.41 M1.96 45.43 C12.71 32.16, 25.12 19.47, 39.36 2.41 M1.7 51.83 C16.83 34.38, 35.53 13.48, 45 2.02 M1.7 51.83 C17.51 33.34, 32.36 16.92, 45 2.02 M1.44 58.23 C20.97 36.66, 37.61 15.82, 49.99 2.38 M1.44 58.23 C20.03 38.12, 38.21 15.54, 49.99 2.38 M1.83 63.87 C21.84 37.4, 41.96 16.38, 55.63 1.98 M1.83 63.87 C21.61 40.93, 41.18 17.78, 55.63 1.98 M1.57 70.27 C19.17 50.53, 41.8 29.22, 60.62 2.34 M1.57 70.27 C18.89 51.06, 35.58 31.94, 60.62 2.34 M1.97 75.91 C24.09 50.51, 44.58 25.8, 66.26 1.95 M1.97 75.91 C16.22 60.39, 28.63 45.55, 66.26 1.95 M1.71 82.31 C26.96 51.99, 53.61 20.7, 71.25 2.31 M1.71 82.31 C26.98 56.52, 50.08 27.75, 71.25 2.31 M2.1 87.95 C28.19 58.42, 54.43 28.25, 76.89 1.91 M2.1 87.95 C17.98 71.48, 32.54 52.92, 76.89 1.91 M1.84 94.35 C30.27 65.04, 54.08 30.73, 81.88 2.27 M1.84 94.35 C34.81 57.49, 65.08 21.48, 81.88 2.27 M1.58 100.75 C18.63 78.71, 35.06 58.35, 86.86 2.63 M1.58 100.75 C32.54 66.14, 63.02 30.11, 86.86 2.63 M1.97 106.39 C27.65 76.21, 55.91 44.16, 92.51 2.24 M1.97 106.39 C38.15 63.56, 74.04 22.87, 92.51 2.24 M1.71 112.79 C32.74 77.34, 64.05 42.13, 97.49 2.6 M1.71 112.79 C25.37 86.21, 47.15 57.83, 97.49 2.6 M2.1 118.43 C33.52 80.73, 67.86 46.55, 103.14 2.21 M2.1 118.43 C25.72 91.12, 48.11 65.33, 103.14 2.21 M1.84 124.83 C38.72 82.36, 71.63 43.67, 108.12 2.57 M1.84 124.83 C30.39 92.24, 58.93 58.55, 108.12 2.57 M1.58 131.23 C44.8 80.53, 86.22 33.94, 113.77 2.17 M1.58 131.23 C33.62 96.35, 63.15 60.76, 113.77 2.17 M1.98 136.87 C40.74 95.28, 77.62 49.46, 118.76 2.53 M1.98 136.87 C32.02 99.26, 64.67 63.09, 118.76 2.53 M1.72 143.27 C28.87 116.65, 53.76 86.54, 124.4 2.14 M1.72 143.27 C32.09 109.9, 60.44 74.51, 124.4 2.14 M2.11 148.91 C48.69 90.05, 101.15 35.76, 129.39 2.5 M2.11 148.91 C36.14 111.25, 71.12 71.28, 129.39 2.5 M1.85 155.31 C32.96 120.92, 65.49 82.16, 134.37 2.86 M1.85 155.31 C47.76 102.74, 93.03 50.38, 134.37 2.86 M1.59 161.71 C41.02 119.6, 78.49 72.55, 140.02 2.46 M1.59 161.71 C47.83 109.94, 91.3 59.1, 140.02 2.46 M1.98 167.35 C43.98 121.91, 82.34 79.55, 145.66 2.07 M1.98 167.35 C46.43 113.17, 92.5 60.89, 145.66 2.07 M1.72 173.75 C58.21 109.89, 115.94 44.26, 150.65 2.43 M1.72 173.75 C47.25 122.55, 91.91 70.97, 150.65 2.43 M2.11 179.39 C37.62 141.67, 69.79 100.51, 154.32 4.3 M2.11 179.39 C36.16 138.45, 71.35 98.09, 154.32 4.3 M1.85 185.79 C48.2 132.07, 93.13 81.78, 158 6.17 M1.85 185.79 C45.75 135.39, 89.45 84.12, 158 6.17 M1.59 192.19 C58.41 126.5, 115.76 60.48, 161.01 8.79 M1.59 192.19 C36.4 150.22, 73.5 108.13, 161.01 8.79 M1.99 197.83 C46.9 146.52, 93.15 94.19, 163.38 12.17 M1.99 197.83 C64.51 126.92, 126.29 56, 163.38 12.17 M1.72 204.23 C44.96 154.96, 86.72 107.54, 166.4 14.79 M1.72 204.23 C36.05 164, 70.11 126.2, 166.4 14.79 M2.12 209.87 C34.23 170.06, 69.68 131.83, 168.1 18.93 M2.12 209.87 C50.62 153.67, 99.39 97.81, 168.1 18.93 M1.86 216.27 C44.7 167.68, 85.41 120.66, 168.5 24.57 M1.86 216.27 C62.55 147.63, 121.84 79.83, 168.5 24.57 M1.6 222.66 C33.59 181.71, 68.09 143.64, 168.24 30.97 M1.6 222.66 C61.34 152.53, 123.08 82.45, 168.24 30.97 M1.99 228.31 C63.68 157.22, 128.02 81.89, 168.63 36.61 M1.99 228.31 C66.87 153.77, 132.18 78.9, 168.63 36.61 M1.73 234.71 C40.09 191.23, 74.78 150.39, 168.37 43.01 M1.73 234.71 C58.28 168.51, 115.09 102.74, 168.37 43.01 M2.12 240.35 C44.02 190.78, 90.09 139.6, 168.11 49.41 M2.12 240.35 C59.88 172.35, 117.64 106.3, 168.11 49.41 M1.86 246.75 C40.53 201.15, 80.81 155.17, 168.5 55.05 M1.86 246.75 C63.33 174.09, 127.13 101.47, 168.5 55.05 M2.26 252.39 C36.07 213.17, 69.7 170.83, 168.24 61.45 M2.26 252.39 C64.09 181.28, 125.14 111.23, 168.24 61.45 M2 258.79 C48.45 207.21, 94.96 152.69, 168.63 67.09 M2 258.79 C44.76 209.66, 87.43 160.82, 168.63 67.09 M1.73 265.19 C49.38 208.54, 97.22 151.59, 168.37 73.49 M1.73 265.19 C56.19 205.22, 108.79 145.43, 168.37 73.49 M2.13 270.83 C65.76 195.95, 131.22 120.57, 168.11 79.89 M2.13 270.83 C64.33 199.15, 125.66 129.58, 168.11 79.89 M1.87 277.23 C49.48 220.22, 100 163.25, 168.51 85.53 M1.87 277.23 C63.63 210.09, 123.06 139.59, 168.51 85.53 M2.26 282.87 C48.18 232.02, 89.17 182.04, 168.25 91.93 M2.26 282.87 C55.86 219.95, 109.59 157.07, 168.25 91.93 M2 289.27 C61 219.13, 122.24 148.61, 168.64 97.57 M2 289.27 C69.63 213.6, 135.63 137.14, 168.64 97.57 M1.74 295.66 C38.4 250.85, 78.12 208.82, 168.38 103.97 M1.74 295.66 C59.64 228.18, 119.5 159.68, 168.38 103.97 M2.13 301.31 C59.64 233.84, 119.39 167.59, 168.12 110.37 M2.13 301.31 C41.81 256.02, 81.66 210.16, 168.12 110.37 M1.87 307.71 C43.88 263.09, 83.6 216.34, 168.51 116.01 M1.87 307.71 C49.57 252.52, 99.22 196.36, 168.51 116.01 M2.27 313.35 C49.11 262.11, 93.23 211.3, 168.25 122.41 M2.27 313.35 C68.69 239.1, 134.42 163.57, 168.25 122.41 M2.01 319.75 C49.31 265.74, 95.64 210.64, 168.64 128.05 M2.01 319.75 C67.82 244.22, 133.17 167.43, 168.64 128.05 M1.74 326.14 C42.96 281.33, 81.94 233.67, 168.38 134.45 M1.74 326.14 C55.61 266.83, 107.42 204.91, 168.38 134.45 M2.14 331.79 C66.12 258.48, 128.16 183.03, 168.12 140.85 M2.14 331.79 C58.38 267.56, 113.82 202.84, 168.12 140.85 M1.88 338.19 C56.85 273, 113.12 207.02, 168.52 146.49 M1.88 338.19 C61.32 269.36, 121.71 200.78, 168.52 146.49 M2.27 343.83 C37.35 303.43, 74.81 264.39, 168.25 152.89 M2.27 343.83 C35.77 303.8, 70.14 264.9, 168.25 152.89 M2.01 350.23 C62.08 283.21, 121.35 213.82, 168.65 158.53 M2.01 350.23 C67.32 276.53, 132.29 202, 168.65 158.53 M1.75 356.62 C42.36 308.24, 85.74 257.72, 168.39 164.93 M1.75 356.62 C52.69 299.54, 101.96 241.65, 168.39 164.93 M2.14 362.27 C45.08 316.9, 83.27 271.63, 168.13 171.33 M2.14 362.27 C66.23 287.39, 131.35 214.33, 168.13 171.33 M1.88 368.66 C42.67 321.41, 80.5 277.78, 168.52 176.97 M1.88 368.66 C57.59 302.62, 114.88 236.76, 168.52 176.97 M2.28 374.31 C46.6 321.48, 87.64 270.98, 168.26 183.37 M2.28 374.31 C45.08 323.94, 89.84 274.38, 168.26 183.37 M2.02 380.71 C59.44 316.41, 115.79 249.85, 168.65 189.01 M2.02 380.71 C46.17 331.34, 90.71 281.81, 168.65 189.01 M1.75 387.1 C39.94 341.27, 76.32 300.21, 168.39 195.41 M1.75 387.1 C40.21 343.11, 78.99 299.81, 168.39 195.41 M2.15 392.75 C58.45 327.38, 114.05 260.95, 168.79 201.05 M2.15 392.75 C38.73 350.91, 74.07 310.1, 168.79 201.05 M1.89 399.14 C47.9 345.58, 94.3 294.44, 168.53 207.45 M1.89 399.14 C39.1 357.52, 76.16 316.08, 168.53 207.45 M2.28 404.79 C51.88 348.44, 97.56 295.5, 168.26 213.85 M2.28 404.79 C61.46 335.88, 121.89 267.2, 168.26 213.85 M2.02 411.18 C46.09 359.64, 94.09 306.36, 168.66 219.49 M2.02 411.18 C48.26 356.86, 95.02 303.89, 168.66 219.49 M2.41 416.83 C41.16 371.65, 79.34 327.01, 168.4 225.89 M2.41 416.83 C49.07 362.44, 97.33 307.39, 168.4 225.89 M2.15 423.23 C43.92 378.68, 82.6 331.47, 168.79 231.53 M2.15 423.23 C65 348.8, 128.27 277.44, 168.79 231.53 M1.89 429.62 C49.5 375.55, 97.77 317.53, 168.53 237.93 M1.89 429.62 C65.35 355.33, 130.31 282.01, 168.53 237.93 M2.29 435.27 C52.39 378.95, 101.82 319.13, 168.27 244.33 M2.29 435.27 C67.44 359.29, 132.63 284.89, 168.27 244.33 M2.02 441.66 C66.42 367.09, 128.15 294.36, 168.66 249.97 M2.02 441.66 C48.54 389.98, 95.13 338, 168.66 249.97 M2.42 447.31 C59.42 377.92, 122.16 308.61, 168.4 256.37 M2.42 447.31 C56.54 384.85, 110.21 324.3, 168.4 256.37 M2.16 453.71 C50.76 397.38, 99.27 342.38, 168.8 262.01 M2.16 453.71 C62.74 381.91, 125.93 309.44, 168.8 262.01 M1.9 460.1 C36.42 418.62, 71.66 379.19, 168.54 268.41 M1.9 460.1 C44.78 410.26, 89.13 359.82, 168.54 268.41 M2.29 465.75 C38.78 423.4, 74.84 384.02, 168.27 274.8 M2.29 465.75 C57.52 401.23, 113.65 336.68, 168.27 274.8 M2.03 472.14 C37.2 433.73, 70.34 393.24, 168.67 280.45 M2.03 472.14 C44.42 421.14, 88.69 372.07, 168.67 280.45 M2.42 477.79 C68.11 405.3, 134.09 329.75, 168.41 286.85 M2.42 477.79 C35.86 437.17, 71.82 397.84, 168.41 286.85 M2.16 484.18 C38.39 441.28, 76.06 398.21, 168.8 292.49 M2.16 484.18 C42.76 438.34, 82.43 391.59, 168.8 292.49 M1.9 490.58 C49.9 434.65, 100.75 376.25, 168.54 298.89 M1.9 490.58 C49.85 436.73, 95.83 384.32, 168.54 298.89 M2.3 496.23 C46.99 444.7, 94.16 390.33, 168.28 305.28 M2.3 496.23 C49.29 442.64, 95.53 389.55, 168.28 305.28 M2.03 502.62 C40.01 460.71, 79.67 414.1, 168.67 310.93 M2.03 502.62 C40.99 458.97, 78.8 415.58, 168.67 310.93 M2.43 508.27 C55.11 448.16, 109.51 386.68, 168.41 317.33 M2.43 508.27 C56.79 444.58, 112.34 381.7, 168.41 317.33 M2.17 514.66 C57.83 449.88, 117.43 383.41, 168.81 322.97 M2.17 514.66 C64.94 442.68, 126.9 373.23, 168.81 322.97 M1.91 521.06 C41.27 473.85, 80.64 430.33, 168.55 329.37 M1.91 521.06 C52.08 464.56, 101.05 407.61, 168.55 329.37 M2.3 526.71 C36.57 486.74, 68.39 449.75, 168.28 335.76 M2.3 526.71 C38.05 483.26, 73.55 442.12, 168.28 335.76 M2.04 533.1 C42.66 486.44, 84.74 438.5, 168.68 341.41 M2.04 533.1 C64.73 461.58, 127.02 389.68, 168.68 341.41 M2.43 538.75 C40.81 494.25, 78.82 451.76, 168.42 347.8 M2.43 538.75 C54.47 478.46, 106.91 418.41, 168.42 347.8 M2.17 545.14 C52.77 491.74, 100.39 434.3, 168.81 353.45 M2.17 545.14 C48.45 491.83, 95.71 437.13, 168.81 353.45 M1.91 551.54 C48.24 500.29, 89.28 449.83, 168.55 359.85 M1.91 551.54 C38.15 509.24, 73.52 469.36, 168.55 359.85 M2.31 557.18 C46.27 506.67, 90.77 456.66, 168.94 365.49 M2.31 557.18 C49.1 505.91, 92.8 454.17, 168.94 365.49 M2.04 563.58 C62.79 493.35, 126.38 418.77, 168.68 371.89 M2.04 563.58 C47.55 509.16, 93.79 455.24, 168.68 371.89 M3.09 568.47 C65.15 494.2, 130.27 422.23, 168.42 378.28 M3.09 568.47 C48.06 516.83, 94.25 463.18, 168.42 378.28 M4.15 573.36 C51.09 518.44, 100.52 461.8, 168.82 383.93 M4.15 573.36 C53.6 515.77, 102.45 459.47, 168.82 383.93 M4.54 579 C39.44 536.54, 76.68 494.34, 168.55 390.32 M4.54 579 C64.44 509.36, 124.52 439.65, 168.55 390.32 M6.9 582.38 C62.94 515.25, 119.64 449.73, 168.95 395.97 M6.9 582.38 C51.16 530.71, 95.85 479.94, 168.95 395.97 M9.92 585.01 C47.75 540.52, 87.8 496.42, 168.69 402.37 M9.92 585.01 C62.31 521.93, 116.93 460.99, 168.69 402.37 M13.6 586.88 C68.32 526.04, 121.45 463.84, 168.43 408.76 M13.6 586.88 C46.41 549.25, 79.06 510.41, 168.43 408.76 M16.62 589.5 C61.6 537.46, 107.11 486.82, 168.82 414.41 M16.62 589.5 C58.07 542.14, 98.02 494.71, 168.82 414.41 M20.29 591.37 C61.59 541.54, 106.07 492.97, 168.56 420.8 M20.29 591.37 C74.53 530.41, 128.01 468.05, 168.56 420.8 M25.28 591.73 C70.59 539.7, 116.69 487.63, 168.95 426.45 M25.28 591.73 C81.13 527.59, 136.76 461.79, 168.95 426.45 M30.92 591.33 C58.68 555.74, 88.16 522.35, 168.69 432.85 M30.92 591.33 C78.5 535.54, 125.18 480.77, 168.69 432.85 M35.91 591.69 C63.75 558.61, 92.52 526.68, 168.43 439.24 M35.91 591.69 C64.86 556.54, 95.64 522.94, 168.43 439.24 M41.55 591.3 C69.71 560.58, 96.85 527.47, 168.83 444.89 M41.55 591.3 C74.34 556, 104.61 518.96, 168.83 444.89 M46.54 591.66 C73.77 558.35, 99.17 529.06, 168.56 451.28 M46.54 591.66 C72.6 560.75, 98.55 530.08, 168.56 451.28 M52.18 591.27 C80.87 557.38, 108.9 526.57, 168.96 456.93 M52.18 591.27 C89.72 545.94, 128.04 500.87, 168.96 456.93 M57.17 591.63 C89.28 554.61, 118.95 519.18, 168.7 463.32 M57.17 591.63 C92.71 551.07, 130.51 507.2, 168.7 463.32 M62.15 591.99 C84.57 564.85, 107.9 541.46, 168.44 469.72 M62.15 591.99 C93.08 556.44, 126.51 519.87, 168.44 469.72 M67.8 591.59 C97.35 555.71, 125.52 522.25, 168.83 475.37 M67.8 591.59 C91.16 564.26, 114.85 536.66, 168.83 475.37 M72.78 591.95 C104.01 555.97, 134.6 522.13, 168.57 481.76 M72.78 591.95 C97.47 565.47, 121.48 536.65, 168.57 481.76 M78.43 591.56 C107.18 560.01, 133.3 528.32, 168.96 487.41 M78.43 591.56 C108.77 556.38, 139.02 522.83, 168.96 487.41 M83.41 591.92 C98.34 573.76, 115.57 551.25, 168.7 493.8 M83.41 591.92 C111.37 559.18, 139.61 528.78, 168.7 493.8 M89.06 591.52 C110.26 567.74, 130.26 543.02, 168.44 500.2 M89.06 591.52 C116.06 562.49, 141.71 532.3, 168.44 500.2 M94.04 591.88 C114.65 564.84, 137.51 539.02, 168.84 505.85 M94.04 591.88 C112.33 570.13, 131.63 550.34, 168.84 505.85 M99.69 591.49 C116.13 572.14, 135.75 549.96, 168.57 512.24 M99.69 591.49 C116.09 572.37, 132.08 555.16, 168.57 512.24 M104.68 591.85 C126.27 568.27, 147.01 544.82, 168.97 517.89 M104.68 591.85 C129.64 564.6, 153.5 536.08, 168.97 517.89 M110.32 591.45 C131.58 567.69, 151.77 541.9, 168.71 524.28 M110.32 591.45 C134.48 563.51, 157.58 537.02, 168.71 524.28 M115.31 591.81 C136.4 567.79, 158.78 544.95, 169.1 529.93 M115.31 591.81 C132.17 573.36, 148.58 553.97, 169.1 529.93 M120.95 591.42 C136.04 574.46, 153.03 555.22, 168.84 536.32 M120.95 591.42 C134.92 575.3, 148.38 561.19, 168.84 536.32 M125.94 591.78 C134.97 577.47, 147.03 568.47, 168.58 542.72 M125.94 591.78 C141.56 571.75, 159.07 552.55, 168.58 542.72 M131.58 591.38 C138.74 580.99, 148.26 571.17, 168.97 548.37 M131.58 591.38 C140.3 580.55, 149.96 571.68, 168.97 548.37 M136.57 591.74 C146.18 582.04, 153.52 569.13, 168.71 554.76 M136.57 591.74 C143.71 582.54, 153.29 572.08, 168.71 554.76 M142.21 591.35 C149.4 582.89, 160.01 572.9, 169.11 560.41 M142.21 591.35 C151.66 579.95, 161.79 568.05, 169.11 560.41 M146.54 592.46 C153.99 582.77, 164.18 573.25, 168.19 567.56 M146.54 592.46 C153.31 584.88, 161.15 577.35, 168.19 567.56 M156.12 587.54 C159.82 582.16, 162.74 579, 165.3 576.98 M156.12 587.54 C158.47 585.3, 161.16 581.79, 165.3 576.98" stroke="#228be6" stroke-width="0.5" fill="none"></path><path d="M32 0 M32 0 C67.88 0.92, 105.16 0.67, 136.49 0 M32 0 C74.05 -1.6, 115.68 -0.79, 136.49 0 M136.49 0 C158.58 1.27, 170.24 9.82, 168.49 32 M136.49 0 C157.12 1.09, 167.97 9.61, 168.49 32 M168.49 32 C167.3 234.17, 167.71 435.71, 168.49 559.38 M168.49 32 C167.5 215.52, 167.28 398.74, 168.49 559.38 M168.49 559.38 C167.88 580.05, 157.59 591.14, 136.49 591.38 M168.49 559.38 C167.89 581.97, 159.82 591.94, 136.49 591.38 M136.49 591.38 C102.27 592.38, 72.8 592.9, 32 591.38 M136.49 591.38 C115.12 591.94, 93.33 591.73, 32 591.38 M32 591.38 C8.72 592.98, 1.85 581.22, 0 559.38 M32 591.38 C9.06 590.32, -1.7 580.17, 0 559.38 M0 559.38 C1.41 425.01, 0.33 290.41, 0 32 M0 559.38 C0.15 376.08, -0.04 192.75, 0 32 M0 32 C-0.63 11.67, 11.09 -1.89, 32 0 M0 32 C1.03 10.05, 10.19 0.9, 32 0" stroke="#000000" stroke-width="1" fill="none"></path></g><g transform="translate(738.5145203675459 263.93552567819245) rotate(0 65 36)"><text x="65" y="20" font-family="Cascadia, Segoe UI Emoji" font-size="20px" fill="#000000" text-anchor="middle" style="white-space: pre;" direction="ltr">Application</text><text x="65" y="44" font-family="Cascadia, Segoe UI Emoji" font-size="20px" fill="#000000" text-anchor="middle" style="white-space: pre;" direction="ltr">Class </text><text x="65" y="68" font-family="Cascadia, Segoe UI Emoji" font-size="20px" fill="#000000" text-anchor="middle" style="white-space: pre;" direction="ltr">(app.rb)</text></g><g stroke-linecap="round"><g transform="translate(923.2272828055277 277.4641176658696) rotate(0 115.0618640278285 1.1246403355887367)"><path d="M0.97 -0.61 C39.46 -0.19, 192.25 1.22, 230.11 1.8 M0.01 1.69 C38.5 2.28, 191.27 2.43, 229.68 2.85" stroke="#000000" stroke-width="2" fill="none"></path></g><g transform="translate(923.2272828055277 277.4641176658696) rotate(0 115.0618640278285 1.1246403355887367)"><path d="M200.42 14.6 C206.49 8.69, 214.74 6.49, 231.59 1.7 M201.93 12.35 C210.12 11.23, 217.9 7.11, 230.51 3.43" stroke="#000000" stroke-width="2" fill="none"></path></g><g transform="translate(923.2272828055277 277.4641176658696) rotate(0 115.0618640278285 1.1246403355887367)"><path d="M200.54 -5.92 C206.46 -7.09, 214.69 -4.54, 231.59 1.7 M202.05 -8.17 C210.29 -3.51, 218.04 -1.84, 230.51 3.43" stroke="#000000" stroke-width="2" fill="none"></path></g></g><mask></mask><g stroke-linecap="round"><g transform="translate(1143.1557458929824 403.775149875809) rotate(0 -117.8281968067248 -0.45476104301926057)"><path d="M0.74 0.16 C-38.69 -0.18, -196.38 -1.17, -235.79 -1.12 M-0.33 -0.81 C-39.93 -1.05, -197.09 0.29, -236.4 0.21" stroke="#000000" stroke-width="2" fill="none"></path></g><g transform="translate(1143.1557458929824 403.775149875809) rotate(0 -117.8281968067248 -0.45476104301926057)"><path d="M-207.98 -9.07 C-219.08 -5.04, -226.74 -4.38, -234.56 0.16 M-209.13 -10.09 C-219.69 -5.12, -231.22 -2.22, -235.79 0.71" stroke="#000000" stroke-width="2" fill="none"></path></g><g transform="translate(1143.1557458929824 403.775149875809) rotate(0 -117.8281968067248 -0.45476104301926057)"><path d="M-207.91 11.45 C-219.18 8, -226.87 1.18, -234.56 0.16 M-209.05 10.43 C-219.45 7.25, -231.01 2.01, -235.79 0.71" stroke="#000000" stroke-width="2" fill="none"></path></g></g><mask></mask><g stroke-linecap="round" transform="translate(1186.89328432562 40.42903560140019) rotate(0 93.54849853196038 292.8974085898291)"><path d="M7.86 8.16 C7.86 8.16, 7.86 8.16, 7.86 8.16 M7.86 8.16 C7.86 8.16, 7.86 8.16, 7.86 8.16 M3.66 19.09 C9.08 11.82, 13.58 4.3, 18.1 2.48 M3.66 19.09 C8.28 12.48, 14.68 7.4, 18.1 2.48 M2.75 26.24 C10.79 19.97, 17.99 9.6, 24.4 1.33 M2.75 26.24 C8.14 19.21, 15.12 10.78, 24.4 1.33 M1.83 33.39 C11.98 19.72, 23.9 8.96, 30.7 0.18 M1.83 33.39 C10.82 22.57, 21.23 11.55, 30.7 0.18 M1.57 39.79 C7.62 33.36, 16.96 24.89, 34.37 2.05 M1.57 39.79 C13.06 26.11, 25.6 11.94, 34.37 2.05 M1.96 45.43 C10.3 38.73, 14.79 27.5, 39.36 2.41 M1.96 45.43 C13.45 32.62, 25.68 17.37, 39.36 2.41 M1.7 51.83 C15.26 36.49, 23.6 25.92, 45 2.02 M1.7 51.83 C15.55 36.39, 28.13 21.41, 45 2.02 M1.44 58.23 C21.99 38.41, 39.13 16.65, 49.99 2.38 M1.44 58.23 C14.51 42.19, 30.28 25.49, 49.99 2.38 M1.83 63.87 C21.95 41.15, 40.63 19.53, 55.63 1.98 M1.83 63.87 C15.3 48.84, 28.05 33.44, 55.63 1.98 M1.57 70.27 C21.5 47.74, 42.25 23.41, 60.62 2.34 M1.57 70.27 C20.16 47.81, 41.28 25.23, 60.62 2.34 M1.97 75.91 C23.88 48.84, 48.32 25.21, 66.26 1.95 M1.97 75.91 C20.76 54.04, 39.31 33.34, 66.26 1.95 M1.71 82.31 C25.66 51.8, 51.19 25.72, 71.25 2.31 M1.71 82.31 C23.57 57.2, 45.36 31.23, 71.25 2.31 M2.1 87.95 C25.34 59.83, 50.06 33.28, 76.89 1.91 M2.1 87.95 C25.97 59.71, 49.18 33.86, 76.89 1.91 M1.84 94.35 C29.33 61.72, 55.55 30.19, 81.88 2.27 M1.84 94.35 C31.98 57.84, 64.29 22.23, 81.88 2.27 M1.58 100.75 C28.79 66.88, 56.87 36.43, 86.86 2.63 M1.58 100.75 C22.45 76.54, 44.22 53.16, 86.86 2.63 M1.97 106.39 C26.6 77.54, 52.18 47.81, 92.51 2.24 M1.97 106.39 C30.19 75.82, 56.62 42.9, 92.51 2.24 M1.71 112.79 C36.21 68.63, 72.86 28.14, 97.49 2.6 M1.71 112.79 C33.83 77.62, 65.89 40.6, 97.49 2.6 M2.1 118.43 C33.29 82.34, 66.1 47.56, 103.14 2.21 M2.1 118.43 C35.54 82.59, 66.13 46.64, 103.14 2.21 M1.84 124.83 C35.8 87.14, 67.84 48.54, 108.12 2.57 M1.84 124.83 C30.74 89.02, 61.74 54.76, 108.12 2.57 M1.58 131.23 C33.32 92.71, 66.95 55.72, 113.77 2.17 M1.58 131.23 C28.2 100.9, 55.85 69.1, 113.77 2.17 M1.98 136.87 C35.72 98.83, 72.58 58.21, 118.76 2.53 M1.98 136.87 C41.63 90.51, 81.37 44, 118.76 2.53 M1.72 143.27 C29.3 108.01, 59.09 75.01, 124.4 2.14 M1.72 143.27 C28 111.01, 56.13 81.48, 124.4 2.14 M2.11 148.91 C45.18 96.66, 89.84 49.53, 129.39 2.5 M2.11 148.91 C50.64 93.64, 100.24 37.65, 129.39 2.5 M1.85 155.31 C36.02 115.02, 68.9 75.97, 135.03 2.1 M1.85 155.31 C51.09 99.71, 98.15 44.41, 135.03 2.1 M1.59 161.71 C51.36 101.58, 104.2 43.92, 140.02 2.46 M1.59 161.71 C37.76 122.31, 70.73 82.42, 140.02 2.46 M1.98 167.35 C34.93 127.14, 70.69 86.08, 145 2.82 M1.98 167.35 C41.96 122.38, 82.14 76.17, 145 2.82 M1.72 173.75 C56.83 112, 107.59 50.15, 150.65 2.43 M1.72 173.75 C62.26 107.42, 120.88 39.58, 150.65 2.43 M2.11 179.39 C57.7 115.01, 114.69 50.85, 155.63 2.79 M2.11 179.39 C59.98 111.32, 117.81 44.21, 155.63 2.79 M1.85 185.79 C38.71 145.39, 73.01 106.67, 162.59 0.88 M1.85 185.79 C40.87 141.37, 80.61 95.07, 162.59 0.88 M1.59 192.19 C67.59 116.37, 129.88 42.08, 166.92 2 M1.59 192.19 C61.37 123.24, 120.69 55.43, 166.92 2 M1.99 197.83 C47.06 144.63, 94.36 92.1, 170.59 3.87 M1.99 197.83 C42.15 150.46, 83.75 102.81, 170.59 3.87 M1.72 204.23 C61.08 134.74, 118.79 67.98, 174.27 5.74 M1.72 204.23 C53.52 147.3, 103.8 88.2, 174.27 5.74 M2.12 209.87 C69.83 131.97, 139.28 52.87, 177.94 7.61 M2.12 209.87 C71.32 130.49, 139.91 51.42, 177.94 7.61 M1.86 216.27 C45.82 163.54, 91.98 109.71, 180.96 10.23 M1.86 216.27 C69.77 136.95, 137.43 58.35, 180.96 10.23 M1.6 222.66 C49.4 164.69, 97.79 110.83, 183.32 13.61 M1.6 222.66 C61.5 153.89, 118.76 87.42, 183.32 13.61 M1.99 228.31 C41.83 183.25, 81.33 137.32, 185.03 17.74 M1.99 228.31 C73.06 147.85, 141.41 68.61, 185.03 17.74 M1.73 234.71 C64.33 159.57, 129.99 87.54, 186.74 21.88 M1.73 234.71 C42.63 185.63, 84.02 138.57, 186.74 21.88 M2.12 240.35 C63.22 166.68, 125.59 97.28, 188.44 26.01 M2.12 240.35 C68.29 164.09, 135.16 86.34, 188.44 26.01 M1.86 246.75 C55.06 183.46, 109.23 120.92, 188.18 32.41 M1.86 246.75 C60.66 178.44, 119.5 111.38, 188.18 32.41 M2.26 252.39 C67.23 172.7, 137.15 94.64, 188.58 38.05 M2.26 252.39 C73.3 171.7, 142.52 92.72, 188.58 38.05 M2 258.79 C57.57 195.44, 111.78 131.26, 188.32 44.45 M2 258.79 C68.86 182.77, 135.42 105.41, 188.32 44.45 M1.73 265.19 C52.53 208.21, 99.91 153.26, 188.71 50.09 M1.73 265.19 C69.6 184.82, 139.1 103.97, 188.71 50.09 M2.13 270.83 C78.41 186.56, 151.63 99.11, 188.45 56.49 M2.13 270.83 C71.41 191.45, 140.35 112.92, 188.45 56.49 M1.87 277.23 C50.1 220.77, 100.31 165.71, 188.19 62.89 M1.87 277.23 C55.47 213.36, 111.71 150.38, 188.19 62.89 M2.26 282.87 C67.9 207.19, 134.02 130.51, 188.58 68.53 M2.26 282.87 C54.88 220.67, 107.72 159.65, 188.58 68.53 M2 289.27 C72.01 205.11, 142.92 122.46, 188.32 74.93 M2 289.27 C72.89 209.19, 143.31 128.1, 188.32 74.93 M1.74 295.66 C70.29 215.23, 142.82 133.08, 188.72 80.57 M1.74 295.66 C59.62 230.46, 117.31 163.36, 188.72 80.57 M2.13 301.31 C63.05 232.02, 124.23 157.99, 188.45 86.97 M2.13 301.31 C46.36 249.05, 90.9 197.53, 188.45 86.97 M1.87 307.71 C72.25 226.72, 142.13 145.36, 188.19 93.37 M1.87 307.71 C69.56 228.01, 137.12 150.16, 188.19 93.37 M2.27 313.35 C74.09 231.5, 147.2 149.3, 188.59 99.01 M2.27 313.35 C41.93 268.78, 80.34 223.84, 188.59 99.01 M2.01 319.75 C63.69 247.35, 125.9 176.99, 188.33 105.41 M2.01 319.75 C44.28 269.37, 89.89 218.64, 188.33 105.41 M1.74 326.14 C59.7 259.24, 120.09 193.69, 188.72 111.05 M1.74 326.14 C74.16 243.86, 145.6 161.03, 188.72 111.05 M2.14 331.79 C59.92 263.2, 122.79 192.92, 188.46 117.45 M2.14 331.79 C49.02 280.6, 93.19 230.16, 188.46 117.45 M1.88 338.19 C51.43 280.81, 102.4 222.61, 188.2 123.85 M1.88 338.19 C71.98 259.41, 140.55 180.06, 188.2 123.85 M2.27 343.83 C58.59 280.14, 113.68 218.76, 188.59 129.49 M2.27 343.83 C64.51 270.97, 126.9 200.01, 188.59 129.49 M2.01 350.23 C52.24 289.67, 102.19 233.47, 188.33 135.89 M2.01 350.23 C71.35 273.1, 139.09 194.65, 188.33 135.89 M1.75 356.62 C57.02 293.24, 110.86 230.74, 188.73 141.53 M1.75 356.62 C43.55 310.39, 84.08 264.19, 188.73 141.53 M2.14 362.27 C66.26 285.79, 131.48 212.82, 188.46 147.93 M2.14 362.27 C47.04 309.34, 92.13 257.35, 188.46 147.93 M1.88 368.66 C42.75 319.5, 85.71 269.12, 188.2 154.33 M1.88 368.66 C46.93 319.26, 92.08 268.01, 188.2 154.33 M2.28 374.31 C76.23 290.02, 150.94 204.36, 188.6 159.97 M2.28 374.31 C59.07 308.73, 114.89 245.29, 188.6 159.97 M2.02 380.71 C61.61 313.37, 119.66 244.17, 188.34 166.37 M2.02 380.71 C53.61 320.48, 107 259.8, 188.34 166.37 M1.75 387.1 C55.57 323.99, 109.65 261.37, 188.73 172.01 M1.75 387.1 C55.87 325.9, 110.08 263.24, 188.73 172.01 M2.15 392.75 C42.37 347.57, 83.53 300.12, 188.47 178.41 M2.15 392.75 C53.26 333.42, 107.18 271.85, 188.47 178.41 M1.89 399.14 C39.59 355.16, 77.46 313.16, 188.86 184.05 M1.89 399.14 C72.34 315.74, 145.15 231.58, 188.86 184.05 M2.28 404.79 C63.43 333.82, 123.13 265.18, 188.6 190.45 M2.28 404.79 C58.95 338.55, 116 271.83, 188.6 190.45 M2.02 411.18 C49.88 352.54, 102.66 295.88, 188.34 196.85 M2.02 411.18 C44.94 358.97, 89.69 307.14, 188.34 196.85 M2.41 416.83 C51.8 359.06, 99.79 303.37, 188.74 202.49 M2.41 416.83 C52.37 358.44, 103.3 300.66, 188.74 202.49 M2.15 423.23 C62.93 351.64, 127.03 282.39, 188.47 208.89 M2.15 423.23 C56.53 360.87, 112.23 296.43, 188.47 208.89 M1.89 429.62 C40.53 387.64, 78.03 344.12, 188.87 214.53 M1.89 429.62 C44.21 380.52, 86.6 332.36, 188.87 214.53 M2.29 435.27 C77.18 351.17, 148.8 269.19, 188.61 220.93 M2.29 435.27 C58.57 371.42, 113.78 308.29, 188.61 220.93 M2.02 441.66 C61.1 373.82, 121.05 305.61, 188.35 227.33 M2.02 441.66 C52.22 381.17, 103.4 323.44, 188.35 227.33 M2.42 447.31 C67.26 374.49, 130.59 301.63, 188.74 232.97 M2.42 447.31 C71.68 369.22, 140.48 290.11, 188.74 232.97 M2.16 453.71 C64.05 381.83, 125.62 311.41, 188.48 239.37 M2.16 453.71 C48.49 399.6, 95.02 346.29, 188.48 239.37 M1.9 460.1 C51.34 402.24, 101.37 345.28, 188.87 245.01 M1.9 460.1 C66.31 385.91, 130.82 311.47, 188.87 245.01 M2.29 465.75 C41.49 419.16, 82.81 375.3, 188.61 251.41 M2.29 465.75 C47.91 412.54, 92.75 360.03, 188.61 251.41 M2.03 472.14 C65.39 398.41, 129.48 328.27, 188.35 257.81 M2.03 472.14 C45.63 424.8, 88.99 375.34, 188.35 257.81 M2.42 477.79 C47.78 424.19, 96.69 369.68, 188.75 263.45 M2.42 477.79 C53.41 419.43, 103.39 360.57, 188.75 263.45 M2.16 484.18 C54.37 425.29, 104.18 364.49, 188.48 269.85 M2.16 484.18 C64.68 412.54, 128 341.21, 188.48 269.85 M1.9 490.58 C69.54 413.11, 136.16 337.62, 188.88 275.49 M1.9 490.58 C40.39 446.71, 78.09 403.36, 188.88 275.49 M2.3 496.23 C60.99 426.27, 120.75 357.66, 188.62 281.89 M2.3 496.23 C70.4 416.47, 139.74 337.91, 188.62 281.89 M2.03 502.62 C76.6 418.29, 149.74 334.87, 188.36 288.29 M2.03 502.62 C49.61 449.08, 94.69 395.24, 188.36 288.29 M2.43 508.27 C53.62 451.14, 105.08 391.15, 188.75 293.93 M2.43 508.27 C60.94 441.6, 118.56 375.51, 188.75 293.93 M2.17 514.66 C47.81 464.73, 94.16 409.52, 188.49 300.33 M2.17 514.66 C50.34 460.38, 99.36 404.36, 188.49 300.33 M1.91 521.06 C44.66 473.94, 89.79 423.19, 188.88 305.97 M1.91 521.06 C68.71 443.83, 134.82 367.81, 188.88 305.97 M2.3 526.71 C65.49 453.78, 128.7 384.25, 188.62 312.37 M2.3 526.71 C42.96 478.6, 84.33 430.54, 188.62 312.37 M2.04 533.1 C51.53 473.23, 103.46 417.13, 188.36 318.77 M2.04 533.1 C69.57 454.63, 137.58 374.64, 188.36 318.77 M2.43 538.75 C63.15 471, 121.88 405.11, 188.75 324.41 M2.43 538.75 C72.92 456.4, 142.39 375.05, 188.75 324.41 M2.17 545.14 C63.21 470.81, 129.02 396.76, 188.49 330.81 M2.17 545.14 C46.06 494.84, 88.21 445.67, 188.49 330.81 M1.91 551.54 C71.36 472.82, 142.6 391.94, 188.89 336.45 M1.91 551.54 C57.84 487.1, 115.78 420.97, 188.89 336.45 M2.31 557.18 C75.88 473.47, 147.54 389.68, 188.63 342.85 M2.31 557.18 C57.12 492.64, 111.84 429.28, 188.63 342.85 M2.7 562.83 C63.68 491.65, 121.97 422.7, 189.02 348.49 M2.7 562.83 C45.47 516.64, 86.25 469.17, 189.02 348.49 M3.75 567.72 C47.08 517.1, 92.34 465.02, 188.76 354.89 M3.75 567.72 C61.72 499.18, 121.36 432.28, 188.76 354.89 M5.46 571.85 C66.65 503.53, 125.46 434.27, 188.5 361.29 M5.46 571.85 C57.85 512.17, 111.07 452.69, 188.5 361.29 M7.16 575.98 C58.23 516.03, 111.64 453.84, 188.89 366.93 M7.16 575.98 C70.51 503.37, 133.92 429.23, 188.89 366.93 M9.53 579.36 C75.24 505.7, 139.11 434.25, 188.63 373.33 M9.53 579.36 C63.28 516.7, 118.33 453.57, 188.63 373.33 M13.2 581.23 C56.23 532.83, 99.47 484.29, 189.03 378.97 M13.2 581.23 C52.86 536.46, 90.95 492.42, 189.03 378.97 M16.88 583.1 C74.96 518.73, 132.98 449.49, 188.76 385.37 M16.88 583.1 C54.86 538.24, 93.27 493.21, 188.76 385.37 M19.9 585.73 C78.97 517.49, 137.92 449.62, 188.5 391.77 M19.9 585.73 C65.26 536.34, 107.39 485.63, 188.5 391.77 M24.88 586.09 C60.09 541.71, 96.31 501.84, 188.9 397.41 M24.88 586.09 C63.67 541.49, 102.23 497.09, 188.9 397.41 M30.53 585.69 C90.59 516.05, 150.15 447.64, 188.64 403.81 M30.53 585.69 C93.52 514.37, 153.86 443.89, 188.64 403.81 M35.51 586.05 C79.59 534.7, 122.84 484.61, 189.03 409.45 M35.51 586.05 C75.16 537.59, 114.91 492.04, 189.03 409.45 M41.16 585.66 C81.12 541.1, 121.12 494.66, 188.77 415.85 M41.16 585.66 C75.48 546.31, 109.04 507.33, 188.77 415.85 M46.14 586.02 C82.87 543.17, 119.21 503.85, 188.51 422.24 M46.14 586.02 C87.89 538.03, 127.96 491.5, 188.51 422.24 M51.79 585.62 C85.1 550.59, 114.84 511.39, 188.9 427.89 M51.79 585.62 C103.44 524.96, 155.38 465.86, 188.9 427.89 M56.77 585.98 C106.54 528.38, 155.43 472.73, 188.64 434.29 M56.77 585.98 C86.32 553.34, 113.66 520.92, 188.64 434.29 M62.42 585.59 C95.22 545.87, 131.84 507.38, 189.04 439.93 M62.42 585.59 C106.37 536.34, 151.12 484.92, 189.04 439.93 M67.4 585.95 C106.41 543.19, 145.15 497.13, 188.77 446.33 M67.4 585.95 C92.94 557.58, 117.76 529.14, 188.77 446.33 M73.05 585.55 C105.05 548.43, 134.47 512.76, 188.51 452.72 M73.05 585.55 C98.54 557.57, 123.35 527.37, 188.51 452.72 M78.03 585.91 C109.02 547.19, 142.37 510.23, 188.91 458.37 M78.03 585.91 C119.55 539.49, 158.44 492.76, 188.91 458.37 M83.68 585.52 C115.32 548.73, 148.84 511.91, 188.65 464.77 M83.68 585.52 C120.91 541.96, 160.58 497.89, 188.65 464.77 M88.66 585.88 C126.67 542.25, 162.25 499.85, 189.04 470.41 M88.66 585.88 C111.68 560.39, 134.58 534.72, 189.04 470.41 M94.31 585.48 C125.93 548.66, 158.99 512.7, 188.78 476.81 M94.31 585.48 C130.34 544.99, 165.7 502.73, 188.78 476.81 M99.29 585.84 C127.28 552.9, 158.28 517.61, 188.52 483.2 M99.29 585.84 C124.77 556.15, 150.34 527.63, 188.52 483.2 M104.94 585.45 C126.77 558.2, 148.76 533.19, 188.91 488.85 M104.94 585.45 C132.39 554.86, 159.23 524.98, 188.91 488.85 M109.92 585.81 C137.07 555.46, 167.52 519.06, 188.65 495.24 M109.92 585.81 C130.15 563.05, 149.38 540.95, 188.65 495.24 M114.91 586.17 C141.51 559.08, 164.52 526.84, 189.05 500.89 M114.91 586.17 C132.39 565.22, 151.68 543.46, 189.05 500.89 M120.55 585.78 C134.11 567.77, 150.22 552.14, 188.78 507.29 M120.55 585.78 C146.68 554.5, 174.55 524.33, 188.78 507.29 M125.54 586.14 C147.65 559.72, 167.41 534.26, 189.18 512.93 M125.54 586.14 C145.95 563.1, 164.24 541.55, 189.18 512.93 M131.18 585.74 C150.61 564.87, 165.26 546.38, 188.92 519.33 M131.18 585.74 C143.58 570.45, 157.67 553.61, 188.92 519.33 M136.17 586.1 C157.39 563.72, 174.01 542.98, 188.66 525.72 M136.17 586.1 C148.78 570.16, 164.09 555.52, 188.66 525.72 M141.81 585.71 C157.95 569.25, 168.28 556.29, 189.05 531.37 M141.81 585.71 C150.72 574.29, 161.81 561.69, 189.05 531.37 M146.8 586.07 C156.98 571.26, 167.81 562.03, 188.79 537.77 M146.8 586.07 C160.08 570.01, 175.38 553.27, 188.79 537.77 M152.44 585.67 C165.53 572.13, 177.98 555.88, 189.18 543.41 M152.44 585.67 C161.08 574.13, 171.15 564.14, 189.18 543.41 M157.43 586.03 C161.89 579.27, 168.41 572.24, 188.92 549.81 M157.43 586.03 C168.35 574.29, 179.64 560.2, 188.92 549.81 M163.07 585.64 C172.16 576.32, 182.37 564.79, 189.32 555.45 M163.07 585.64 C172.34 576.07, 182.23 565.6, 189.32 555.45 M170.69 582.98 C175.52 575.69, 181.05 572.84, 188.4 562.6 M170.69 582.98 C173.93 577.99, 178.41 573.6, 188.4 562.6" stroke="#228be6" stroke-width="0.5" fill="none"></path><path d="M32 0 M32 0 C77.35 -0.17, 125.14 -2.41, 155.1 0 M32 0 C58.23 0.5, 82.04 1.51, 155.1 0 M155.1 0 C177.55 0.17, 185.98 10.35, 187.1 32 M155.1 0 C175.98 1.86, 186.22 10.35, 187.1 32 M187.1 32 C184.91 155.98, 185.45 279.61, 187.1 553.79 M187.1 32 C185.21 233.98, 185.28 436.35, 187.1 553.79 M187.1 553.79 C185.7 573.92, 176.71 586.9, 155.1 585.79 M187.1 553.79 C188.18 573.13, 178.51 584.29, 155.1 585.79 M155.1 585.79 C113.04 587, 73.55 587.08, 32 585.79 M155.1 585.79 C121.87 586.84, 86.65 585.32, 32 585.79 M32 585.79 C11.77 585.01, 0.38 573.88, 0 553.79 M32 585.79 C8.96 586.19, -0.94 576.22, 0 553.79 M0 553.79 C-2.09 392.06, -1.9 230.12, 0 32 M0 553.79 C1.76 383.59, 2.01 212.87, 0 32 M0 32 C-1.7 8.68, 9.07 1.86, 32 0 M0 32 C0.17 10.37, 11.61 1.09, 32 0" stroke="#000000" stroke-width="1" fill="none"></path></g><g transform="translate(1198.2329368148276 278.78196313105974) rotate(0 85.69960237877319 19.526491681239463)"><text x="85.69960237877324" y="15.526491681239474" font-family="Cascadia, Segoe UI Emoji" font-size="16.021858500764587px" fill="#000000" text-anchor="middle" style="white-space: pre;" direction="ltr">Repository Class</text><text x="85.69960237877324" y="35.05298336247895" font-family="Cascadia, Segoe UI Emoji" font-size="16.021858500764587px" fill="#000000" text-anchor="middle" style="white-space: pre;" direction="ltr">(artist_repository</text></g><g stroke-linecap="round" transform="translate(1598.53720769987 98.88639798486679) rotate(0 97.46649384714169 231.79776179621695)"><path d="M7.86 8.16 C7.86 8.16, 7.86 8.16, 7.86 8.16 M7.86 8.16 C7.86 8.16, 7.86 8.16, 7.86 8.16 M3.66 19.09 C6.74 15.49, 14.27 8.86, 18.1 2.48 M3.66 19.09 C6.13 14.93, 11.21 10.49, 18.1 2.48 M2.75 26.24 C8.76 19.74, 14.91 13.67, 24.4 1.33 M2.75 26.24 C7.87 21, 10.53 15.16, 24.4 1.33 M2.48 32.64 C10.52 23.45, 19.44 13.27, 30.7 0.18 M2.48 32.64 C8.86 25.32, 13.97 19.73, 30.7 0.18 M2.88 38.28 C11.75 31.42, 18.55 21.45, 34.37 2.05 M2.88 38.28 C10.08 28.28, 18.17 20.66, 34.37 2.05 M2.62 44.68 C11.4 34.65, 23.38 21.5, 39.36 2.41 M2.62 44.68 C14.47 30.94, 26.07 17.19, 39.36 2.41 M2.36 51.07 C16.77 36.2, 28.56 22.38, 45 2.02 M2.36 51.07 C15.98 36.23, 26.33 23.24, 45 2.02 M2.75 56.72 C20.53 38, 35.08 17.92, 49.99 2.38 M2.75 56.72 C19.29 38.48, 34.81 20.24, 49.99 2.38 M2.49 63.11 C15.88 44.96, 33.63 30.89, 55.63 1.98 M2.49 63.11 C18.45 43.36, 36.08 23.95, 55.63 1.98 M2.88 68.76 C27.16 41.71, 49.05 17.13, 60.62 2.34 M2.88 68.76 C16.94 53.62, 30.23 39.28, 60.62 2.34 M2.62 75.16 C19.69 52.85, 40.06 32.16, 66.26 1.95 M2.62 75.16 C19.36 55.31, 38.64 34.27, 66.26 1.95 M2.36 81.55 C30 51.05, 55.83 19.69, 71.25 2.31 M2.36 81.55 C16.77 65.35, 30.02 50.1, 71.25 2.31 M2.76 87.2 C33.89 51.43, 62.98 18.14, 76.89 1.91 M2.76 87.2 C28.95 57.27, 54.64 28.03, 76.89 1.91 M2.49 93.59 C29.43 61.92, 60.07 28.16, 81.88 2.27 M2.49 93.59 C30.46 63.15, 57.32 32.08, 81.88 2.27 M2.23 99.99 C23.51 74.33, 48 48.63, 87.52 1.88 M2.23 99.99 C22.58 77.19, 42.19 56.28, 87.52 1.88 M2.63 105.64 C22.16 83.15, 42.02 59.26, 92.51 2.24 M2.63 105.64 C30.55 73.77, 56.68 44.4, 92.51 2.24 M2.37 112.03 C23.86 88.91, 44.49 64.01, 97.49 2.6 M2.37 112.03 C25.38 84.36, 50.85 56.62, 97.49 2.6 M2.76 117.68 C24.73 94.51, 47.11 68.01, 103.14 2.21 M2.76 117.68 C24.81 92.26, 46.39 66.95, 103.14 2.21 M2.5 124.07 C43.58 76.38, 87.58 27.12, 108.12 2.57 M2.5 124.07 C34.61 87.71, 66.6 51.21, 108.12 2.57 M2.24 130.47 C34.05 96.76, 64.16 58.35, 113.77 2.17 M2.24 130.47 C27.09 102, 51.49 74.61, 113.77 2.17 M2.63 136.11 C30.26 104.88, 57.08 73.55, 118.76 2.53 M2.63 136.11 C34.22 101.37, 64.34 65.44, 118.76 2.53 M2.37 142.51 C48.1 87.46, 96.29 37.46, 124.4 2.14 M2.37 142.51 C42.75 97.45, 81.68 51.64, 124.4 2.14 M2.77 148.16 C49.41 96.37, 92.84 47.54, 129.39 2.5 M2.77 148.16 C53.46 90.65, 103.01 33.43, 129.39 2.5 M2.5 154.55 C34.32 115.41, 68.66 76.34, 135.03 2.1 M2.5 154.55 C42.14 108.47, 82.02 61.62, 135.03 2.1 M2.24 160.95 C37.22 121.21, 70.78 79.58, 140.02 2.46 M2.24 160.95 C51.8 104.94, 100.64 48.69, 140.02 2.46 M2.64 166.59 C44.11 123.06, 82 76.51, 145 2.82 M2.64 166.59 C38.1 128.85, 70.21 90.93, 145 2.82 M2.38 172.99 C38.35 132.63, 73.59 89.31, 150.65 2.43 M2.38 172.99 C51.44 116.34, 100.8 59.02, 150.65 2.43 M2.77 178.64 C56.39 118.56, 108.38 56.14, 155.63 2.79 M2.77 178.64 C61.82 113.06, 121.17 45.12, 155.63 2.79 M2.51 185.03 C55.18 125.08, 105.81 67.15, 161.28 2.39 M2.51 185.03 C65.86 114.09, 127.02 43.14, 161.28 2.39 M2.25 191.43 C43.6 144.84, 79.46 100.09, 166.26 2.75 M2.25 191.43 C48.13 137.43, 94.92 84.49, 166.26 2.75 M2.64 197.07 C48.64 146.87, 94.02 96.26, 171.91 2.36 M2.64 197.07 C46.58 145.69, 91.92 91.95, 171.91 2.36 M2.38 203.47 C41.28 157.75, 79.62 110.84, 177.55 1.96 M2.38 203.47 C46.31 151.35, 89.93 100.99, 177.55 1.96 M2.12 209.87 C66.3 137.47, 129.91 61.2, 180.57 4.59 M2.12 209.87 C68.99 129.78, 137.67 52.61, 180.57 4.59 M2.51 215.51 C49.72 158.1, 99.22 102.51, 184.24 6.46 M2.51 215.51 C56.28 154.12, 109.5 92.42, 184.24 6.46 M2.25 221.91 C53.78 161.19, 105.38 103.33, 187.92 8.33 M2.25 221.91 C51.16 164.12, 100.5 107.92, 187.92 8.33 M2.65 227.55 C44.75 180.79, 88.87 131.16, 189.62 12.46 M2.65 227.55 C41.72 181.63, 80.07 137.98, 189.62 12.46 M2.39 233.95 C73.85 150.78, 145.63 66.67, 191.99 15.84 M2.39 233.95 C55.25 172.65, 107.53 113.85, 191.99 15.84 M2.12 240.35 C47.35 188.71, 93.36 134.75, 194.35 19.22 M2.12 240.35 C50.16 184.54, 98.4 129.01, 194.35 19.22 M2.52 245.99 C47.56 194, 94.14 140.18, 195.4 24.11 M2.52 245.99 C63.63 176.55, 124.32 106.85, 195.4 24.11 M2.26 252.39 C72.6 170.03, 140.19 89.26, 195.79 29.75 M2.26 252.39 C56.79 191.21, 111.19 130.05, 195.79 29.75 M2.65 258.03 C55.94 195.33, 109.64 133.89, 197.5 33.88 M2.65 258.03 C63.87 188.34, 125.6 116.26, 197.5 33.88 M2.39 264.43 C61.7 196.93, 120.22 127.61, 197.24 40.28 M2.39 264.43 C46.64 214.61, 90.17 163.67, 197.24 40.28 M2.13 270.83 C70.63 190.59, 140.11 110.87, 197.63 45.92 M2.13 270.83 C69.1 193.48, 136.29 114.39, 197.63 45.92 M2.52 276.47 C61.97 207.73, 124.3 136.45, 197.37 52.32 M2.52 276.47 C43.67 228.7, 85.25 179.41, 197.37 52.32 M2.26 282.87 C80.01 194.61, 157.51 106.42, 197.11 58.72 M2.26 282.87 C61.51 215.26, 119.74 148.27, 197.11 58.72 M2 289.27 C57.64 226.78, 114.19 158.87, 197.51 64.36 M2 289.27 C48.2 234.28, 96.7 178.44, 197.51 64.36 M2.4 294.91 C67.14 223.08, 130.11 149.24, 197.24 70.76 M2.4 294.91 C43.6 249.03, 83.67 203.09, 197.24 70.76 M2.13 301.31 C51.34 243.27, 101.87 184.67, 197.64 76.4 M2.13 301.31 C58.54 233.37, 116.09 166.07, 197.64 76.4 M2.53 306.95 C73.24 224.17, 145.51 142.7, 197.38 82.8 M2.53 306.95 C65.79 233.73, 130.04 160.55, 197.38 82.8 M2.27 313.35 C61.23 245.2, 116.85 181.43, 197.12 89.2 M2.27 313.35 C49.08 258.56, 96.14 205.39, 197.12 89.2 M2.01 319.75 C65.61 244.44, 128.78 171.4, 197.51 94.84 M2.01 319.75 C52.02 262.93, 103.57 204.22, 197.51 94.84 M2.4 325.39 C45.54 275.14, 86.88 226.59, 197.25 101.24 M2.4 325.39 C67.2 251.12, 129.2 178.39, 197.25 101.24 M2.14 331.79 C63.19 264.03, 121.03 195.36, 197.64 106.88 M2.14 331.79 C47.52 279.24, 93.47 226.57, 197.64 106.88 M2.53 337.43 C60.32 272.05, 116.55 204.96, 197.38 113.28 M2.53 337.43 C59.23 272.64, 114.41 209.56, 197.38 113.28 M2.27 343.83 C77.35 255.62, 154 166.15, 197.12 119.68 M2.27 343.83 C42.52 296.11, 84.1 249.99, 197.12 119.68 M2.01 350.23 C64.49 278.4, 126.71 207.84, 197.52 125.32 M2.01 350.23 C44.86 297.95, 89.22 247.14, 197.52 125.32 M2.4 355.87 C75.6 269.31, 152.28 182.1, 197.25 131.72 M2.4 355.87 C74.86 270.66, 148.98 186.18, 197.25 131.72 M2.14 362.27 C68.79 287.62, 135.87 212.83, 197.65 137.36 M2.14 362.27 C72.91 282.36, 142.28 201.29, 197.65 137.36 M2.54 367.91 C52.23 310.52, 100.38 255.19, 197.39 143.76 M2.54 367.91 C54.21 306.22, 107.84 245.76, 197.39 143.76 M2.28 374.31 C69.37 296.82, 136.3 220.37, 197.13 150.16 M2.28 374.31 C53.13 317.56, 103.22 259.56, 197.13 150.16 M2.02 380.71 C54.15 320.23, 103.85 261.86, 197.52 155.8 M2.02 380.71 C49.88 325.35, 98.54 271.14, 197.52 155.8 M2.41 386.35 C71.67 307.65, 140.51 229.11, 197.26 162.2 M2.41 386.35 C76.87 299.45, 152.06 213.03, 197.26 162.2 M2.15 392.75 C59.34 327.08, 115.59 261.91, 197.65 167.84 M2.15 392.75 C78.15 304.87, 155.35 215.99, 197.65 167.84 M1.89 399.14 C67.44 322.24, 134.87 243.55, 197.39 174.24 M1.89 399.14 C77.41 310.05, 154.29 222.32, 197.39 174.24 M2.28 404.79 C56.91 341.49, 111.3 279.62, 197.13 180.64 M2.28 404.79 C48.93 349.41, 97.39 294.57, 197.13 180.64 M2.02 411.18 C67.29 335.12, 134.53 258.3, 197.53 186.28 M2.02 411.18 C41.49 365.85, 80.72 319.54, 197.53 186.28 M2.41 416.83 C78.43 330.52, 152.15 247.12, 197.26 192.68 M2.41 416.83 C50.73 360.33, 99.52 304.38, 197.26 192.68 M2.15 423.23 C58.5 362.05, 113.94 296.45, 197 199.08 M2.15 423.23 C66.04 348.12, 131.73 273.81, 197 199.08 M-0.08 431.89 C48.82 378.6, 93.04 325.53, 197.4 204.72 M-0.08 431.89 C59.09 363.29, 119.35 292.62, 197.4 204.72 M0.97 436.78 C75.02 353.27, 147.46 269.82, 197.14 211.12 M0.97 436.78 C75.12 350.91, 149.37 266.05, 197.14 211.12 M1.37 442.42 C54.45 382.07, 107.86 322.09, 197.53 216.76 M1.37 442.42 C47.88 389.06, 94.45 336.71, 197.53 216.76 M3.08 446.55 C70.66 367.63, 139.47 287.77, 197.27 223.16 M3.08 446.55 C64 378.5, 123.81 308.47, 197.27 223.16 M4.78 450.69 C45.48 401.6, 85.65 356.95, 197.01 229.56 M4.78 450.69 C60.98 386.42, 117 321.12, 197.01 229.56 M7.8 453.31 C45.6 410.08, 84.29 363.49, 197.4 235.2 M7.8 453.31 C84.4 366.48, 159.03 280.24, 197.4 235.2 M10.16 456.69 C81.2 376.38, 149.87 297.98, 197.14 241.6 M10.16 456.69 C60.26 397.51, 110.53 338.81, 197.14 241.6 M13.18 459.31 C57.52 407.09, 103.87 354.87, 197.54 247.24 M13.18 459.31 C61.53 400.83, 113.36 343.35, 197.54 247.24 M16.86 461.18 C83.98 385.99, 147.86 310.02, 197.27 253.64 M16.86 461.18 C85.31 381.71, 155.91 300.68, 197.27 253.64 M21.19 462.3 C68.09 411.84, 112.29 359.44, 197.01 260.04 M21.19 462.3 C68.84 406.36, 117.36 352.26, 197.01 260.04 M25.52 463.41 C92.3 387.56, 161.13 309.86, 197.41 265.68 M25.52 463.41 C60.59 423.19, 96.11 383.44, 197.41 265.68 M30.51 463.77 C87.62 398.03, 142.8 333.26, 197.15 272.08 M30.51 463.77 C83.13 404.57, 133.23 347.58, 197.15 272.08 M35.49 464.13 C90.07 402.82, 144.38 340.88, 197.54 277.72 M35.49 464.13 C83.6 408.52, 133.12 352.38, 197.54 277.72 M41.14 463.74 C78.4 420.65, 115.92 378.48, 197.28 284.12 M41.14 463.74 C94.43 400.41, 150.25 337.5, 197.28 284.12 M46.12 464.1 C87.46 414.24, 129.93 366.41, 197.02 290.52 M46.12 464.1 C76.69 428.47, 107.55 394.35, 197.02 290.52 M51.77 463.7 C87.76 420.84, 126.31 380.73, 197.41 296.16 M51.77 463.7 C111.05 398.32, 168.13 331.15, 197.41 296.16 M56.75 464.06 C88.39 428.37, 118.78 395.36, 197.15 302.56 M56.75 464.06 C91.6 421.93, 128.94 380.82, 197.15 302.56 M62.4 463.67 C105.57 413.83, 149.06 363.71, 197.54 308.2 M62.4 463.67 C102.55 416.59, 141.44 370.29, 197.54 308.2 M67.38 464.03 C105.69 420.1, 145.11 377.07, 197.28 314.6 M67.38 464.03 C112.33 410.98, 159.87 357.12, 197.28 314.6 M73.03 463.64 C110.07 419.43, 149.17 376, 197.02 321 M73.03 463.64 C109.38 421.89, 146.63 381.44, 197.02 321 M78.01 464 C123.91 412.02, 169.71 355.21, 197.42 326.64 M78.01 464 C106.8 432.37, 133.79 401.84, 197.42 326.64 M83.66 463.6 C124.04 420.43, 161 373.79, 197.16 333.04 M83.66 463.6 C117.52 424.62, 150.61 384.69, 197.16 333.04 M88.64 463.96 C128.59 419.75, 166.6 374.4, 197.55 338.68 M88.64 463.96 C122.58 423.35, 156.3 384.55, 197.55 338.68 M93.63 464.32 C125.1 427.58, 152.89 394.24, 197.29 345.08 M93.63 464.32 C117.45 438.24, 139.93 411.42, 197.29 345.08 M99.27 463.93 C132.02 427.48, 162.16 388.75, 197.03 351.47 M99.27 463.93 C127.14 431.33, 156.6 399.26, 197.03 351.47 M104.26 464.29 C125.87 439.76, 150.84 411.76, 197.42 357.12 M104.26 464.29 C129.85 434.91, 153.87 406.86, 197.42 357.12 M109.9 463.89 C133.18 437.46, 152.84 410.6, 197.16 363.52 M109.9 463.89 C143.01 425.17, 178.04 387.24, 197.16 363.52 M114.89 464.25 C136.76 440.68, 157.21 416.3, 197.55 369.16 M114.89 464.25 C146.9 427.76, 180.45 389.79, 197.55 369.16 M120.53 463.86 C146.25 434.32, 173.6 399.67, 197.29 375.56 M120.53 463.86 C141.11 441.37, 159.55 418.24, 197.29 375.56 M125.52 464.22 C141.87 447.04, 157.34 427.58, 197.03 381.95 M125.52 464.22 C144.2 444.23, 161.53 424.17, 197.03 381.95 M131.16 463.82 C149.16 442.15, 168.5 425.29, 197.43 387.6 M131.16 463.82 C148.64 443.83, 168.26 421.92, 197.43 387.6 M136.15 464.18 C159.74 438, 180.19 414.7, 197.16 393.99 M136.15 464.18 C153.28 444.66, 170.7 423.55, 197.16 393.99 M141.79 463.79 C156.59 443.4, 171.8 429.5, 197.56 399.64 M141.79 463.79 C155.51 448.05, 170.79 429.94, 197.56 399.64 M146.78 464.15 C164.34 441.81, 182.71 421.01, 197.3 406.04 M146.78 464.15 C158.09 451.76, 169.01 439.17, 197.3 406.04 M151.77 464.51 C166.47 449.27, 180.41 432.47, 197.04 412.43 M151.77 464.51 C166.96 445.77, 184.4 427.5, 197.04 412.43 M157.41 464.11 C163.8 454.28, 174.65 442.64, 197.43 418.08 M157.41 464.11 C171.33 449.24, 184.14 434.05, 197.43 418.08 M163.05 463.72 C176.34 450.43, 188.66 434.95, 197.17 424.47 M163.05 463.72 C174.98 450.1, 186.36 436.77, 197.17 424.47 M169.35 462.57 C179.23 449.42, 188.88 438.15, 195.6 432.38 M169.35 462.57 C174.63 456.12, 180.51 447.91, 195.6 432.38 M175 462.18 C181.48 458.44, 186.58 449.42, 194.68 439.53 M175 462.18 C181.11 455.01, 188.51 447.26, 194.68 439.53 M179.33 463.29 C184.14 459.13, 185.66 454.47, 191.79 448.95 M179.33 463.29 C182.58 458.72, 185.55 454.74, 191.79 448.95" stroke="#228be6" stroke-width="0.5" fill="none"></path><path d="M32 0 M32 0 C59.3 2.11, 83.92 0.56, 162.93 0 M32 0 C72.8 -1.12, 114.17 -0.28, 162.93 0 M162.93 0 C185.38 0.94, 193.19 12.47, 194.93 32 M162.93 0 C182.76 0.78, 193.97 11.42, 194.93 32 M194.93 32 C196.35 132.52, 195.84 234, 194.93 431.6 M194.93 32 C195.8 176.95, 196.09 321.37, 194.93 431.6 M194.93 431.6 C193.69 451.45, 184.61 462.78, 162.93 463.6 M194.93 431.6 C196.03 453.15, 185.75 463.84, 162.93 463.6 M162.93 463.6 C134.25 463.22, 107.13 461.38, 32 463.6 M162.93 463.6 C121.21 463.78, 78.75 463.83, 32 463.6 M32 463.6 C12.53 463.74, -0.26 453.75, 0 431.6 M32 463.6 C11.76 462.97, -0.03 454.64, 0 431.6 M0 431.6 C-1.82 336.81, -1.08 240.11, 0 32 M0 431.6 C0.77 324.22, 1.25 217.48, 0 32 M0 32 C-0.85 8.93, 11.78 0.51, 32 0 M0 32 C1.4 9.13, 10.13 -2.17, 32 0" stroke="#000000" stroke-width="1" fill="none"></path></g><g transform="translate(1645.4922592809723 325.85605897728317) rotate(0 48 12)"><text x="48" y="20" font-family="Cascadia, Segoe UI Emoji" font-size="20px" fill="#000000" text-anchor="middle" style="white-space: pre;" direction="ltr">Database</text></g><g stroke-linecap="round"><g transform="translate(1405.1116145592844 148.02649218725276) rotate(0 79.84353038644508 -1.3650057741202772)"><path d="M-0.71 -0.51 C25.69 -0.84, 131.43 -2.22, 158.22 -2.22 M1.11 -1.83 C27.89 -2, 133.97 -1.04, 160.4 -1.14" stroke="#000000" stroke-width="1" fill="none"></path></g><g transform="translate(1405.1116145592844 148.02649218725276) rotate(0 79.84353038644508 -1.3650057741202772)"><path d="M131.32 7.33 C138.76 7.65, 149.64 3.77, 161.47 0.49 M132.22 10.02 C139.88 5.86, 146.79 3.57, 160.72 -0.63" stroke="#000000" stroke-width="1" fill="none"></path></g><g transform="translate(1405.1116145592844 148.02649218725276) rotate(0 79.84353038644508 -1.3650057741202772)"><path d="M131.39 -13.19 C138.76 -7.04, 149.62 -5.1, 161.47 0.49 M132.29 -10.5 C139.94 -9.67, 146.84 -6.97, 160.72 -0.63" stroke="#000000" stroke-width="1" fill="none"></path></g></g><mask></mask><g stroke-linecap="round"><g transform="translate(1556.6960778310156 501.4076470741322) rotate(0 -74.62608044691365 0.9695977881759745)"><path d="M-0.57 0.23 C-25.6 0.49, -125.17 1.19, -150.21 1.52 M1.34 -0.7 C-23.76 -0.3, -125.15 1.95, -150.59 2.64" stroke="#000000" stroke-width="1" fill="none"></path></g><g transform="translate(1556.6960778310156 501.4076470741322) rotate(0 -74.62608044691365 0.9695977881759745)"><path d="M-122.28 -6.48 C-132.36 -4.32, -139.64 -3.27, -149 2.94 M-122.8 -9.28 C-132.95 -5.21, -141.6 -1.59, -151.33 1.78" stroke="#000000" stroke-width="1" fill="none"></path></g><g transform="translate(1556.6960778310156 501.4076470741322) rotate(0 -74.62608044691365 0.9695977881759745)"><path d="M-121.78 14.03 C-132.01 10.03, -139.43 4.92, -149 2.94 M-122.3 11.24 C-132.68 7.98, -141.5 4.27, -151.33 1.78" stroke="#000000" stroke-width="1" fill="none"></path></g></g><mask></mask><g transform="translate(916.5540444854564 237.41403856946943) rotate(0 112.5 12)"><text x="112.5" y="20" font-family="Cascadia, Segoe UI Emoji" font-size="20px" fill="#000000" text-anchor="middle" style="white-space: pre;" direction="ltr">Method call: CREATE</text></g><g transform="translate(906.0975574569331 423.0426960161976) rotate(0 133.62708790585418 36.34051115853259)"><text x="133.62708790585415" y="15.17025557926629" font-family="Cascadia, Segoe UI Emoji" font-size="15.141879649388576px" fill="#000000" text-anchor="middle" style="white-space: pre;" direction="ltr">Return Value: Repository class</text><text x="133.62708790585415" y="33.34051115853258" font-family="Cascadia, Segoe UI Emoji" font-size="15.141879649388576px" fill="#000000" text-anchor="middle" style="white-space: pre;" direction="ltr">returns a list of Artists</text><text x="133.62708790585415" y="51.51076673779887" font-family="Cascadia, Segoe UI Emoji" font-size="15.141879649388576px" fill="#000000" text-anchor="middle" style="white-space: pre;" direction="ltr">objects to</text><text x="133.62708790585415" y="69.68102231706516" font-family="Cascadia, Segoe UI Emoji" font-size="15.141879649388576px" fill="#000000" text-anchor="middle" style="white-space: pre;" direction="ltr">the route block</text></g><g transform="translate(1377.918685503161 29.232214812663813) rotate(0 108.57209439159533 47.899453408056814)"><text x="108.57209439159539" y="16.159781363222724" font-family="Cascadia, Segoe UI Emoji" font-size="15.966484469352267px" fill="#000000" text-anchor="middle" style="white-space: pre;" direction="ltr">SQL Query:</text><text x="108.57209439159539" y="35.31956272644545" font-family="Cascadia, Segoe UI Emoji" font-size="15.966484469352267px" fill="#000000" text-anchor="middle" style="white-space: pre;" direction="ltr">INSERT INTO artists</text><text x="108.57209439159539" y="54.479344089668174" font-family="Cascadia, Segoe UI Emoji" font-size="15.966484469352267px" fill="#000000" text-anchor="middle" style="white-space: pre;" direction="ltr">(name, genre)</text><text x="108.57209439159539" y="73.6391254528909" font-family="Cascadia, Segoe UI Emoji" font-size="15.966484469352267px" fill="#000000" text-anchor="middle" style="white-space: pre;" direction="ltr">VALUES</text><text x="108.57209439159539" y="92.79890681611361" font-family="Cascadia, Segoe UI Emoji" font-size="15.966484469352267px" fill="#000000" text-anchor="middle" style="white-space: pre;" direction="ltr">('Billie Eilish', 'Pop)</text></g><g transform="translate(1393.0822108284513 532.4412665050281) rotate(0 106.63680826992913 43.56227061239662)"><text x="106.63680826992923" y="17.78113530619831" font-family="Cascadia, Segoe UI Emoji" font-size="18.150946088498596px" fill="#000000" text-anchor="middle" style="white-space: pre;" direction="ltr">Result set: database</text><text x="106.63680826992923" y="39.56227061239662" font-family="Cascadia, Segoe UI Emoji" font-size="18.150946088498596px" fill="#000000" text-anchor="middle" style="white-space: pre;" direction="ltr">returns update</text><text x="106.63680826992923" y="61.343405918594925" font-family="Cascadia, Segoe UI Emoji" font-size="18.150946088498596px" fill="#000000" text-anchor="middle" style="white-space: pre;" direction="ltr">table with Billie </text><text x="106.63680826992923" y="83.12454122479323" font-family="Cascadia, Segoe UI Emoji" font-size="18.150946088498596px" fill="#000000" text-anchor="middle" style="white-space: pre;" direction="ltr">Eilish</text></g></svg>